%TF.GenerationSoftware,KiCad,Pcbnew,(5.1.9)-1*%
%TF.CreationDate,2021-08-06T11:33:52+02:00*%
%TF.ProjectId,PumpkinPi,50756d70-6b69-46e5-9069-2e6b69636164,rev?*%
%TF.SameCoordinates,Original*%
%TF.FileFunction,Copper,L2,Inr*%
%TF.FilePolarity,Positive*%
%FSLAX46Y46*%
G04 Gerber Fmt 4.6, Leading zero omitted, Abs format (unit mm)*
G04 Created by KiCad (PCBNEW (5.1.9)-1) date 2021-08-06 11:33:52*
%MOMM*%
%LPD*%
G01*
G04 APERTURE LIST*
%TA.AperFunction,ComponentPad*%
%ADD10C,0.100000*%
%TD*%
%TA.AperFunction,ComponentPad*%
%ADD11R,1.700000X1.700000*%
%TD*%
%TA.AperFunction,ComponentPad*%
%ADD12O,1.700000X1.700000*%
%TD*%
%TA.AperFunction,ViaPad*%
%ADD13C,0.400000*%
%TD*%
%TA.AperFunction,Conductor*%
%ADD14C,0.200000*%
%TD*%
G04 APERTURE END LIST*
%TA.AperFunction,ComponentPad*%
D10*
%TO.N,GND*%
%TO.C,J2*%
G36*
X103250000Y-100623000D02*
G01*
X103250000Y-102323000D01*
X102900000Y-102323000D01*
X102900000Y-114173000D01*
X101900000Y-114173000D01*
X101900000Y-102323000D01*
X101550000Y-102323000D01*
X101550000Y-100623000D01*
X103250000Y-100623000D01*
G37*
%TD.AperFunction*%
%TA.AperFunction,ComponentPad*%
%TO.N,/USB_P*%
G36*
X105790000Y-100623000D02*
G01*
X105790000Y-102323000D01*
X105440000Y-102323000D01*
X105440000Y-113473000D01*
X104440000Y-113473000D01*
X104440000Y-102323000D01*
X104090000Y-102323000D01*
X104090000Y-100623000D01*
X105790000Y-100623000D01*
G37*
%TD.AperFunction*%
%TA.AperFunction,ComponentPad*%
%TO.N,/USB_N*%
G36*
X108330000Y-100623000D02*
G01*
X108330000Y-102323000D01*
X107980000Y-102323000D01*
X107980000Y-113473000D01*
X106980000Y-113473000D01*
X106980000Y-102323000D01*
X106630000Y-102323000D01*
X106630000Y-100623000D01*
X108330000Y-100623000D01*
G37*
%TD.AperFunction*%
%TA.AperFunction,ComponentPad*%
%TO.N,/USB_VBUS*%
G36*
X110870000Y-100623000D02*
G01*
X110870000Y-102323000D01*
X110520000Y-102323000D01*
X110520000Y-114173000D01*
X109520000Y-114173000D01*
X109520000Y-102323000D01*
X109170000Y-102323000D01*
X109170000Y-100623000D01*
X110870000Y-100623000D01*
G37*
%TD.AperFunction*%
%TD*%
D11*
%TO.N,/SPI_MOSI*%
%TO.C,J4*%
X114046000Y-98679000D03*
D12*
%TO.N,/SPI_MISO*%
X114046000Y-96139000D03*
%TO.N,/SPI_CS*%
X114046000Y-93599000D03*
%TO.N,/SPI_CLK*%
X114046000Y-91059000D03*
%TO.N,GND*%
X114046000Y-88519000D03*
%TD*%
%TO.N,GND*%
%TO.C,J5*%
X111252000Y-86741000D03*
%TO.N,/RX*%
X108712000Y-86741000D03*
%TO.N,/TX*%
X106172000Y-86741000D03*
%TO.N,/SCL*%
X103632000Y-86741000D03*
D11*
%TO.N,/SDA*%
X101092000Y-86741000D03*
%TD*%
%TO.N,/PD7*%
%TO.C,J6*%
X98298000Y-98679000D03*
D12*
%TO.N,/PD8*%
X98298000Y-96139000D03*
%TO.N,/PD9*%
X98298000Y-93599000D03*
%TO.N,/PD10*%
X98298000Y-91059000D03*
%TO.N,GND*%
X98298000Y-88519000D03*
%TD*%
D13*
%TO.N,+1V1*%
X108619997Y-98044000D03*
X109347000Y-90170000D03*
X102395634Y-90912001D03*
%TO.N,GND*%
X111525000Y-97901000D03*
%TO.N,+2V5*%
X103345806Y-99820086D03*
X103967344Y-88835067D03*
%TO.N,+3V3*%
X108020036Y-98050998D03*
X106642432Y-98083340D03*
X111276968Y-100554851D03*
X102021627Y-96499689D03*
X112699657Y-91541865D03*
%TO.N,/CLKP*%
X112176560Y-92736860D03*
%TO.N,/CLKN*%
X110462669Y-92591633D03*
%TO.N,/RESET*%
X109220000Y-98044000D03*
X102421651Y-97282844D03*
%TO.N,/USB_VBUS*%
X102429998Y-94457195D03*
%TO.N,/SD0_D1*%
X110445644Y-95425286D03*
%TO.N,/SD0_D0*%
X109950000Y-98044000D03*
%TO.N,/SD0_CLK*%
X110386072Y-94334000D03*
%TO.N,/SD0_CMD*%
X111532594Y-94183276D03*
%TO.N,/SD0_D3*%
X111530346Y-93583280D03*
%TO.N,/SD0_D2*%
X109970002Y-92934096D03*
%TO.N,/SVREF*%
X105899749Y-89934189D03*
%TD*%
D14*
%TO.N,+1V1*%
X102873445Y-90434190D02*
X102395634Y-90912001D01*
X109082810Y-90434190D02*
X102873445Y-90434190D01*
X109347000Y-90170000D02*
X109082810Y-90434190D01*
%TO.N,+3V3*%
X111376383Y-100554851D02*
X111276968Y-100554851D01*
X112699657Y-99231577D02*
X111376383Y-100554851D01*
X112699657Y-91541865D02*
X112699657Y-99231577D01*
X108020036Y-98333840D02*
X108020036Y-98050998D01*
X110009186Y-100322990D02*
X108020036Y-98333840D01*
X111045107Y-100322990D02*
X110009186Y-100322990D01*
X111276968Y-100554851D02*
X111045107Y-100322990D01*
%TO.N,/RESET*%
X109220000Y-97761158D02*
X109220000Y-98044000D01*
X108741686Y-97282844D02*
X109220000Y-97761158D01*
X102421651Y-97282844D02*
X108741686Y-97282844D01*
%TD*%
M02*
