%FSLAX45Y45*%
G04 Gerber Fmt 4.5, Leading zero omitted, Abs format (unit mm)*
G04 Created by KiCad (PCBNEW (5.1.9)-1) date 2021-08-06 11:35:15*
%MOMM*%
%LPD*%
G01*
G04 APERTURE LIST*
%TA.AperFunction,Profile*%
%ADD10C,0.050000*%
%TD*%
%ADD11C,0.200000*%
%ADD12C,0.300000*%
G04 APERTURE END LIST*
D10*
X11540000Y-10000000D02*
X11240000Y-10000000D01*
X11540000Y-8550000D02*
X11540000Y-10000000D01*
X9700000Y-8550000D02*
X11540000Y-8550000D01*
X9700000Y-10000000D02*
X9700000Y-8550000D01*
X10000000Y-10000000D02*
X9700000Y-10000000D01*
X11240000Y-10000000D02*
X11240000Y-11480000D01*
X10000000Y-11480000D02*
X11240000Y-11480000D01*
X10000000Y-10000000D02*
X10000000Y-11480000D01*
D11*
D12*
X9983928Y-11948214D02*
X9983928Y-11648214D01*
X10055357Y-11648214D01*
X10098214Y-11662500D01*
X10126786Y-11691071D01*
X10141071Y-11719643D01*
X10155357Y-11776786D01*
X10155357Y-11819643D01*
X10141071Y-11876786D01*
X10126786Y-11905357D01*
X10098214Y-11933929D01*
X10055357Y-11948214D01*
X9983928Y-11948214D01*
X10283928Y-11948214D02*
X10283928Y-11748214D01*
X10283928Y-11805357D02*
X10298214Y-11776786D01*
X10312500Y-11762500D01*
X10341071Y-11748214D01*
X10369643Y-11748214D01*
X10469643Y-11948214D02*
X10469643Y-11748214D01*
X10469643Y-11648214D02*
X10455357Y-11662500D01*
X10469643Y-11676786D01*
X10483928Y-11662500D01*
X10469643Y-11648214D01*
X10469643Y-11676786D01*
X10655357Y-11948214D02*
X10626786Y-11933929D01*
X10612500Y-11905357D01*
X10612500Y-11648214D01*
X10812500Y-11948214D02*
X10783928Y-11933929D01*
X10769643Y-11905357D01*
X10769643Y-11648214D01*
X11155357Y-11948214D02*
X11155357Y-11648214D01*
X11255357Y-11862500D01*
X11355357Y-11648214D01*
X11355357Y-11948214D01*
X11626786Y-11948214D02*
X11626786Y-11791071D01*
X11612500Y-11762500D01*
X11583928Y-11748214D01*
X11526786Y-11748214D01*
X11498214Y-11762500D01*
X11626786Y-11933929D02*
X11598214Y-11948214D01*
X11526786Y-11948214D01*
X11498214Y-11933929D01*
X11483928Y-11905357D01*
X11483928Y-11876786D01*
X11498214Y-11848214D01*
X11526786Y-11833929D01*
X11598214Y-11833929D01*
X11626786Y-11819643D01*
X11769643Y-11748214D02*
X11769643Y-12048214D01*
X11769643Y-11762500D02*
X11798214Y-11748214D01*
X11855357Y-11748214D01*
X11883928Y-11762500D01*
X11898214Y-11776786D01*
X11912500Y-11805357D01*
X11912500Y-11891071D01*
X11898214Y-11919643D01*
X11883928Y-11933929D01*
X11855357Y-11948214D01*
X11798214Y-11948214D01*
X11769643Y-11933929D01*
X12041071Y-11919643D02*
X12055357Y-11933929D01*
X12041071Y-11948214D01*
X12026786Y-11933929D01*
X12041071Y-11919643D01*
X12041071Y-11948214D01*
X12041071Y-11762500D02*
X12055357Y-11776786D01*
X12041071Y-11791071D01*
X12026786Y-11776786D01*
X12041071Y-11762500D01*
X12041071Y-11791071D01*
M02*
