%TF.GenerationSoftware,KiCad,Pcbnew,(5.1.9)-1*%
%TF.CreationDate,2021-08-06T11:33:52+02:00*%
%TF.ProjectId,PumpkinPi,50756d70-6b69-46e5-9069-2e6b69636164,rev?*%
%TF.SameCoordinates,Original*%
%TF.FileFunction,Paste,Top*%
%TF.FilePolarity,Positive*%
%FSLAX46Y46*%
G04 Gerber Fmt 4.6, Leading zero omitted, Abs format (unit mm)*
G04 Created by KiCad (PCBNEW (5.1.9)-1) date 2021-08-06 11:33:52*
%MOMM*%
%LPD*%
G01*
G04 APERTURE LIST*
%ADD10R,0.400000X0.650000*%
%ADD11R,1.150000X1.200000*%
%ADD12R,1.400000X0.900000*%
%ADD13R,1.000000X0.700000*%
%ADD14R,1.450000X1.200000*%
%ADD15R,0.700000X1.000000*%
%ADD16R,0.650000X0.400000*%
%ADD17R,1.600000X1.300000*%
G04 APERTURE END LIST*
D10*
%TO.C,U4*%
X103708440Y-93797160D03*
X105008440Y-93797160D03*
X104358440Y-93797160D03*
X105008440Y-91897160D03*
X103708440Y-91897160D03*
%TD*%
%TO.C,C1*%
G36*
G01*
X103639340Y-90919360D02*
X103639340Y-90609360D01*
G75*
G02*
X103794340Y-90454360I155000J0D01*
G01*
X104219340Y-90454360D01*
G75*
G02*
X104374340Y-90609360I0J-155000D01*
G01*
X104374340Y-90919360D01*
G75*
G02*
X104219340Y-91074360I-155000J0D01*
G01*
X103794340Y-91074360D01*
G75*
G02*
X103639340Y-90919360I0J155000D01*
G01*
G37*
G36*
G01*
X104774340Y-90919360D02*
X104774340Y-90609360D01*
G75*
G02*
X104929340Y-90454360I155000J0D01*
G01*
X105354340Y-90454360D01*
G75*
G02*
X105509340Y-90609360I0J-155000D01*
G01*
X105509340Y-90919360D01*
G75*
G02*
X105354340Y-91074360I-155000J0D01*
G01*
X104929340Y-91074360D01*
G75*
G02*
X104774340Y-90919360I0J155000D01*
G01*
G37*
%TD*%
%TO.C,C2*%
G36*
G01*
X103644420Y-89969400D02*
X103644420Y-89659400D01*
G75*
G02*
X103799420Y-89504400I155000J0D01*
G01*
X104224420Y-89504400D01*
G75*
G02*
X104379420Y-89659400I0J-155000D01*
G01*
X104379420Y-89969400D01*
G75*
G02*
X104224420Y-90124400I-155000J0D01*
G01*
X103799420Y-90124400D01*
G75*
G02*
X103644420Y-89969400I0J155000D01*
G01*
G37*
G36*
G01*
X104779420Y-89969400D02*
X104779420Y-89659400D01*
G75*
G02*
X104934420Y-89504400I155000J0D01*
G01*
X105359420Y-89504400D01*
G75*
G02*
X105514420Y-89659400I0J-155000D01*
G01*
X105514420Y-89969400D01*
G75*
G02*
X105359420Y-90124400I-155000J0D01*
G01*
X104934420Y-90124400D01*
G75*
G02*
X104779420Y-89969400I0J155000D01*
G01*
G37*
%TD*%
%TO.C,C3*%
G36*
G01*
X106278740Y-93160240D02*
X105968740Y-93160240D01*
G75*
G02*
X105813740Y-93005240I0J155000D01*
G01*
X105813740Y-92580240D01*
G75*
G02*
X105968740Y-92425240I155000J0D01*
G01*
X106278740Y-92425240D01*
G75*
G02*
X106433740Y-92580240I0J-155000D01*
G01*
X106433740Y-93005240D01*
G75*
G02*
X106278740Y-93160240I-155000J0D01*
G01*
G37*
G36*
G01*
X106278740Y-94295240D02*
X105968740Y-94295240D01*
G75*
G02*
X105813740Y-94140240I0J155000D01*
G01*
X105813740Y-93715240D01*
G75*
G02*
X105968740Y-93560240I155000J0D01*
G01*
X106278740Y-93560240D01*
G75*
G02*
X106433740Y-93715240I0J-155000D01*
G01*
X106433740Y-94140240D01*
G75*
G02*
X106278740Y-94295240I-155000J0D01*
G01*
G37*
%TD*%
%TO.C,C11*%
G36*
G01*
X112021560Y-92369360D02*
X112331560Y-92369360D01*
G75*
G02*
X112486560Y-92524360I0J-155000D01*
G01*
X112486560Y-92949360D01*
G75*
G02*
X112331560Y-93104360I-155000J0D01*
G01*
X112021560Y-93104360D01*
G75*
G02*
X111866560Y-92949360I0J155000D01*
G01*
X111866560Y-92524360D01*
G75*
G02*
X112021560Y-92369360I155000J0D01*
G01*
G37*
G36*
G01*
X112021560Y-93504360D02*
X112331560Y-93504360D01*
G75*
G02*
X112486560Y-93659360I0J-155000D01*
G01*
X112486560Y-94084360D01*
G75*
G02*
X112331560Y-94239360I-155000J0D01*
G01*
X112021560Y-94239360D01*
G75*
G02*
X111866560Y-94084360I0J155000D01*
G01*
X111866560Y-93659360D01*
G75*
G02*
X112021560Y-93504360I155000J0D01*
G01*
G37*
%TD*%
%TO.C,C12*%
G36*
G01*
X109520000Y-92555000D02*
X109520000Y-92865000D01*
G75*
G02*
X109365000Y-93020000I-155000J0D01*
G01*
X108940000Y-93020000D01*
G75*
G02*
X108785000Y-92865000I0J155000D01*
G01*
X108785000Y-92555000D01*
G75*
G02*
X108940000Y-92400000I155000J0D01*
G01*
X109365000Y-92400000D01*
G75*
G02*
X109520000Y-92555000I0J-155000D01*
G01*
G37*
G36*
G01*
X108385000Y-92555000D02*
X108385000Y-92865000D01*
G75*
G02*
X108230000Y-93020000I-155000J0D01*
G01*
X107805000Y-93020000D01*
G75*
G02*
X107650000Y-92865000I0J155000D01*
G01*
X107650000Y-92555000D01*
G75*
G02*
X107805000Y-92400000I155000J0D01*
G01*
X108230000Y-92400000D01*
G75*
G02*
X108385000Y-92555000I0J-155000D01*
G01*
G37*
%TD*%
D11*
%TO.C,J3*%
X111525000Y-95311000D03*
X111525000Y-97901000D03*
D12*
X101100000Y-95161000D03*
D13*
X100900000Y-96311000D03*
D14*
X101125000Y-97461000D03*
D15*
X110450000Y-98951000D03*
X109350000Y-98951000D03*
X108250000Y-98951000D03*
X107150000Y-98951000D03*
X106050000Y-98951000D03*
X104950000Y-98951000D03*
X103850000Y-98951000D03*
X102750000Y-98951000D03*
%TD*%
%TO.C,R7*%
G36*
G01*
X106840060Y-93845360D02*
X106840060Y-93525360D01*
G75*
G02*
X107000060Y-93365360I160000J0D01*
G01*
X107395060Y-93365360D01*
G75*
G02*
X107555060Y-93525360I0J-160000D01*
G01*
X107555060Y-93845360D01*
G75*
G02*
X107395060Y-94005360I-160000J0D01*
G01*
X107000060Y-94005360D01*
G75*
G02*
X106840060Y-93845360I0J160000D01*
G01*
G37*
G36*
G01*
X108035060Y-93845360D02*
X108035060Y-93525360D01*
G75*
G02*
X108195060Y-93365360I160000J0D01*
G01*
X108590060Y-93365360D01*
G75*
G02*
X108750060Y-93525360I0J-160000D01*
G01*
X108750060Y-93845360D01*
G75*
G02*
X108590060Y-94005360I-160000J0D01*
G01*
X108195060Y-94005360D01*
G75*
G02*
X108035060Y-93845360I0J160000D01*
G01*
G37*
%TD*%
%TO.C,R8*%
G36*
G01*
X104809260Y-89062540D02*
X104809260Y-88742540D01*
G75*
G02*
X104969260Y-88582540I160000J0D01*
G01*
X105364260Y-88582540D01*
G75*
G02*
X105524260Y-88742540I0J-160000D01*
G01*
X105524260Y-89062540D01*
G75*
G02*
X105364260Y-89222540I-160000J0D01*
G01*
X104969260Y-89222540D01*
G75*
G02*
X104809260Y-89062540I0J160000D01*
G01*
G37*
G36*
G01*
X103614260Y-89062540D02*
X103614260Y-88742540D01*
G75*
G02*
X103774260Y-88582540I160000J0D01*
G01*
X104169260Y-88582540D01*
G75*
G02*
X104329260Y-88742540I0J-160000D01*
G01*
X104329260Y-89062540D01*
G75*
G02*
X104169260Y-89222540I-160000J0D01*
G01*
X103774260Y-89222540D01*
G75*
G02*
X103614260Y-89062540I0J160000D01*
G01*
G37*
%TD*%
%TO.C,R9*%
G36*
G01*
X106471740Y-88605400D02*
X106791740Y-88605400D01*
G75*
G02*
X106951740Y-88765400I0J-160000D01*
G01*
X106951740Y-89160400D01*
G75*
G02*
X106791740Y-89320400I-160000J0D01*
G01*
X106471740Y-89320400D01*
G75*
G02*
X106311740Y-89160400I0J160000D01*
G01*
X106311740Y-88765400D01*
G75*
G02*
X106471740Y-88605400I160000J0D01*
G01*
G37*
G36*
G01*
X106471740Y-89800400D02*
X106791740Y-89800400D01*
G75*
G02*
X106951740Y-89960400I0J-160000D01*
G01*
X106951740Y-90355400D01*
G75*
G02*
X106791740Y-90515400I-160000J0D01*
G01*
X106471740Y-90515400D01*
G75*
G02*
X106311740Y-90355400I0J160000D01*
G01*
X106311740Y-89960400D01*
G75*
G02*
X106471740Y-89800400I160000J0D01*
G01*
G37*
%TD*%
D10*
%TO.C,U2*%
X100808000Y-93660000D03*
X102108000Y-93660000D03*
X101458000Y-93660000D03*
X102108000Y-91760000D03*
X100808000Y-91760000D03*
%TD*%
D16*
%TO.C,U3*%
X102677000Y-89012000D03*
X102677000Y-90312000D03*
X100777000Y-89662000D03*
X100777000Y-90312000D03*
X100777000Y-89012000D03*
%TD*%
D17*
%TO.C,Y1*%
X111474520Y-89058240D03*
X108174520Y-89058240D03*
X108174520Y-91058240D03*
X111474520Y-91058240D03*
%TD*%
M02*
