%TF.GenerationSoftware,KiCad,Pcbnew,(5.1.9)-1*%
%TF.CreationDate,2021-08-06T11:33:52+02:00*%
%TF.ProjectId,PumpkinPi,50756d70-6b69-46e5-9069-2e6b69636164,rev?*%
%TF.SameCoordinates,Original*%
%TF.FileFunction,Copper,L1,Top*%
%TF.FilePolarity,Positive*%
%FSLAX46Y46*%
G04 Gerber Fmt 4.6, Leading zero omitted, Abs format (unit mm)*
G04 Created by KiCad (PCBNEW (5.1.9)-1) date 2021-08-06 11:33:52*
%MOMM*%
%LPD*%
G01*
G04 APERTURE LIST*
%TA.AperFunction,SMDPad,CuDef*%
%ADD10R,0.400000X0.650000*%
%TD*%
%TA.AperFunction,ComponentPad*%
%ADD11C,0.100000*%
%TD*%
%TA.AperFunction,SMDPad,CuDef*%
%ADD12R,1.150000X1.200000*%
%TD*%
%TA.AperFunction,SMDPad,CuDef*%
%ADD13R,1.400000X0.900000*%
%TD*%
%TA.AperFunction,SMDPad,CuDef*%
%ADD14R,1.000000X0.700000*%
%TD*%
%TA.AperFunction,SMDPad,CuDef*%
%ADD15R,1.450000X1.200000*%
%TD*%
%TA.AperFunction,SMDPad,CuDef*%
%ADD16R,0.700000X1.000000*%
%TD*%
%TA.AperFunction,ComponentPad*%
%ADD17R,1.700000X1.700000*%
%TD*%
%TA.AperFunction,ComponentPad*%
%ADD18O,1.700000X1.700000*%
%TD*%
%TA.AperFunction,SMDPad,CuDef*%
%ADD19R,0.650000X0.400000*%
%TD*%
%TA.AperFunction,SMDPad,CuDef*%
%ADD20R,1.600000X1.300000*%
%TD*%
%TA.AperFunction,ViaPad*%
%ADD21C,0.400000*%
%TD*%
%TA.AperFunction,Conductor*%
%ADD22C,0.200000*%
%TD*%
G04 APERTURE END LIST*
D10*
%TO.P,U4,1*%
%TO.N,/USB_VBUS*%
X103708440Y-93797160D03*
%TO.P,U4,3*%
X105008440Y-93797160D03*
%TO.P,U4,2*%
%TO.N,GND*%
X104358440Y-93797160D03*
%TO.P,U4,4*%
%TO.N,N/C*%
X105008440Y-91897160D03*
%TO.P,U4,5*%
%TO.N,+3V3*%
X103708440Y-91897160D03*
%TD*%
%TO.P,C1,1*%
%TO.N,+1V1*%
%TA.AperFunction,SMDPad,CuDef*%
G36*
G01*
X103639340Y-90919360D02*
X103639340Y-90609360D01*
G75*
G02*
X103794340Y-90454360I155000J0D01*
G01*
X104219340Y-90454360D01*
G75*
G02*
X104374340Y-90609360I0J-155000D01*
G01*
X104374340Y-90919360D01*
G75*
G02*
X104219340Y-91074360I-155000J0D01*
G01*
X103794340Y-91074360D01*
G75*
G02*
X103639340Y-90919360I0J155000D01*
G01*
G37*
%TD.AperFunction*%
%TO.P,C1,2*%
%TO.N,GND*%
%TA.AperFunction,SMDPad,CuDef*%
G36*
G01*
X104774340Y-90919360D02*
X104774340Y-90609360D01*
G75*
G02*
X104929340Y-90454360I155000J0D01*
G01*
X105354340Y-90454360D01*
G75*
G02*
X105509340Y-90609360I0J-155000D01*
G01*
X105509340Y-90919360D01*
G75*
G02*
X105354340Y-91074360I-155000J0D01*
G01*
X104929340Y-91074360D01*
G75*
G02*
X104774340Y-90919360I0J155000D01*
G01*
G37*
%TD.AperFunction*%
%TD*%
%TO.P,C2,1*%
%TO.N,+2V5*%
%TA.AperFunction,SMDPad,CuDef*%
G36*
G01*
X103644420Y-89969400D02*
X103644420Y-89659400D01*
G75*
G02*
X103799420Y-89504400I155000J0D01*
G01*
X104224420Y-89504400D01*
G75*
G02*
X104379420Y-89659400I0J-155000D01*
G01*
X104379420Y-89969400D01*
G75*
G02*
X104224420Y-90124400I-155000J0D01*
G01*
X103799420Y-90124400D01*
G75*
G02*
X103644420Y-89969400I0J155000D01*
G01*
G37*
%TD.AperFunction*%
%TO.P,C2,2*%
%TO.N,GND*%
%TA.AperFunction,SMDPad,CuDef*%
G36*
G01*
X104779420Y-89969400D02*
X104779420Y-89659400D01*
G75*
G02*
X104934420Y-89504400I155000J0D01*
G01*
X105359420Y-89504400D01*
G75*
G02*
X105514420Y-89659400I0J-155000D01*
G01*
X105514420Y-89969400D01*
G75*
G02*
X105359420Y-90124400I-155000J0D01*
G01*
X104934420Y-90124400D01*
G75*
G02*
X104779420Y-89969400I0J155000D01*
G01*
G37*
%TD.AperFunction*%
%TD*%
%TO.P,C3,2*%
%TO.N,GND*%
%TA.AperFunction,SMDPad,CuDef*%
G36*
G01*
X106278740Y-93160240D02*
X105968740Y-93160240D01*
G75*
G02*
X105813740Y-93005240I0J155000D01*
G01*
X105813740Y-92580240D01*
G75*
G02*
X105968740Y-92425240I155000J0D01*
G01*
X106278740Y-92425240D01*
G75*
G02*
X106433740Y-92580240I0J-155000D01*
G01*
X106433740Y-93005240D01*
G75*
G02*
X106278740Y-93160240I-155000J0D01*
G01*
G37*
%TD.AperFunction*%
%TO.P,C3,1*%
%TO.N,+3V3*%
%TA.AperFunction,SMDPad,CuDef*%
G36*
G01*
X106278740Y-94295240D02*
X105968740Y-94295240D01*
G75*
G02*
X105813740Y-94140240I0J155000D01*
G01*
X105813740Y-93715240D01*
G75*
G02*
X105968740Y-93560240I155000J0D01*
G01*
X106278740Y-93560240D01*
G75*
G02*
X106433740Y-93715240I0J-155000D01*
G01*
X106433740Y-94140240D01*
G75*
G02*
X106278740Y-94295240I-155000J0D01*
G01*
G37*
%TD.AperFunction*%
%TD*%
%TO.P,C11,1*%
%TO.N,/CLKP*%
%TA.AperFunction,SMDPad,CuDef*%
G36*
G01*
X112021560Y-92369360D02*
X112331560Y-92369360D01*
G75*
G02*
X112486560Y-92524360I0J-155000D01*
G01*
X112486560Y-92949360D01*
G75*
G02*
X112331560Y-93104360I-155000J0D01*
G01*
X112021560Y-93104360D01*
G75*
G02*
X111866560Y-92949360I0J155000D01*
G01*
X111866560Y-92524360D01*
G75*
G02*
X112021560Y-92369360I155000J0D01*
G01*
G37*
%TD.AperFunction*%
%TO.P,C11,2*%
%TO.N,GND*%
%TA.AperFunction,SMDPad,CuDef*%
G36*
G01*
X112021560Y-93504360D02*
X112331560Y-93504360D01*
G75*
G02*
X112486560Y-93659360I0J-155000D01*
G01*
X112486560Y-94084360D01*
G75*
G02*
X112331560Y-94239360I-155000J0D01*
G01*
X112021560Y-94239360D01*
G75*
G02*
X111866560Y-94084360I0J155000D01*
G01*
X111866560Y-93659360D01*
G75*
G02*
X112021560Y-93504360I155000J0D01*
G01*
G37*
%TD.AperFunction*%
%TD*%
%TO.P,C12,1*%
%TO.N,/CLKN*%
%TA.AperFunction,SMDPad,CuDef*%
G36*
G01*
X109520000Y-92555000D02*
X109520000Y-92865000D01*
G75*
G02*
X109365000Y-93020000I-155000J0D01*
G01*
X108940000Y-93020000D01*
G75*
G02*
X108785000Y-92865000I0J155000D01*
G01*
X108785000Y-92555000D01*
G75*
G02*
X108940000Y-92400000I155000J0D01*
G01*
X109365000Y-92400000D01*
G75*
G02*
X109520000Y-92555000I0J-155000D01*
G01*
G37*
%TD.AperFunction*%
%TO.P,C12,2*%
%TO.N,GND*%
%TA.AperFunction,SMDPad,CuDef*%
G36*
G01*
X108385000Y-92555000D02*
X108385000Y-92865000D01*
G75*
G02*
X108230000Y-93020000I-155000J0D01*
G01*
X107805000Y-93020000D01*
G75*
G02*
X107650000Y-92865000I0J155000D01*
G01*
X107650000Y-92555000D01*
G75*
G02*
X107805000Y-92400000I155000J0D01*
G01*
X108230000Y-92400000D01*
G75*
G02*
X108385000Y-92555000I0J-155000D01*
G01*
G37*
%TD.AperFunction*%
%TD*%
%TA.AperFunction,ComponentPad*%
D11*
%TO.P,J2,1*%
%TO.N,GND*%
G36*
X103250000Y-100623000D02*
G01*
X103250000Y-102323000D01*
X102900000Y-102323000D01*
X102900000Y-114173000D01*
X101900000Y-114173000D01*
X101900000Y-102323000D01*
X101550000Y-102323000D01*
X101550000Y-100623000D01*
X103250000Y-100623000D01*
G37*
%TD.AperFunction*%
%TA.AperFunction,ComponentPad*%
%TO.P,J2,2*%
%TO.N,/USB_P*%
G36*
X105790000Y-100623000D02*
G01*
X105790000Y-102323000D01*
X105440000Y-102323000D01*
X105440000Y-113473000D01*
X104440000Y-113473000D01*
X104440000Y-102323000D01*
X104090000Y-102323000D01*
X104090000Y-100623000D01*
X105790000Y-100623000D01*
G37*
%TD.AperFunction*%
%TA.AperFunction,ComponentPad*%
%TO.P,J2,3*%
%TO.N,/USB_N*%
G36*
X108330000Y-100623000D02*
G01*
X108330000Y-102323000D01*
X107980000Y-102323000D01*
X107980000Y-113473000D01*
X106980000Y-113473000D01*
X106980000Y-102323000D01*
X106630000Y-102323000D01*
X106630000Y-100623000D01*
X108330000Y-100623000D01*
G37*
%TD.AperFunction*%
%TA.AperFunction,ComponentPad*%
%TO.P,J2,4*%
%TO.N,/USB_VBUS*%
G36*
X110870000Y-100623000D02*
G01*
X110870000Y-102323000D01*
X110520000Y-102323000D01*
X110520000Y-114173000D01*
X109520000Y-114173000D01*
X109520000Y-102323000D01*
X109170000Y-102323000D01*
X109170000Y-100623000D01*
X110870000Y-100623000D01*
G37*
%TD.AperFunction*%
%TD*%
D12*
%TO.P,J3,10*%
%TO.N,GND*%
X111525000Y-95311000D03*
%TO.P,J3,9*%
X111525000Y-97901000D03*
D13*
%TO.P,J3,11*%
%TO.N,N/C*%
X101100000Y-95161000D03*
D14*
%TO.P,J3,12*%
X100900000Y-96311000D03*
D15*
%TO.P,J3,13*%
%TO.N,GND*%
X101125000Y-97461000D03*
D16*
%TO.P,J3,8*%
%TO.N,/SD0_D1*%
X110450000Y-98951000D03*
%TO.P,J3,7*%
%TO.N,/SD0_D0*%
X109350000Y-98951000D03*
%TO.P,J3,6*%
%TO.N,GND*%
X108250000Y-98951000D03*
%TO.P,J3,5*%
%TO.N,/SD0_CLK*%
X107150000Y-98951000D03*
%TO.P,J3,4*%
%TO.N,+3V3*%
X106050000Y-98951000D03*
%TO.P,J3,3*%
%TO.N,/SD0_CMD*%
X104950000Y-98951000D03*
%TO.P,J3,2*%
%TO.N,/SD0_D3*%
X103850000Y-98951000D03*
%TO.P,J3,1*%
%TO.N,/SD0_D2*%
X102750000Y-98951000D03*
%TD*%
D17*
%TO.P,J4,1*%
%TO.N,/SPI_MOSI*%
X114046000Y-98679000D03*
D18*
%TO.P,J4,2*%
%TO.N,/SPI_MISO*%
X114046000Y-96139000D03*
%TO.P,J4,3*%
%TO.N,/SPI_CS*%
X114046000Y-93599000D03*
%TO.P,J4,4*%
%TO.N,/SPI_CLK*%
X114046000Y-91059000D03*
%TO.P,J4,5*%
%TO.N,GND*%
X114046000Y-88519000D03*
%TD*%
%TO.P,J5,5*%
%TO.N,GND*%
X111252000Y-86741000D03*
%TO.P,J5,4*%
%TO.N,/RX*%
X108712000Y-86741000D03*
%TO.P,J5,3*%
%TO.N,/TX*%
X106172000Y-86741000D03*
%TO.P,J5,2*%
%TO.N,/SCL*%
X103632000Y-86741000D03*
D17*
%TO.P,J5,1*%
%TO.N,/SDA*%
X101092000Y-86741000D03*
%TD*%
%TO.P,J6,1*%
%TO.N,/PD7*%
X98298000Y-98679000D03*
D18*
%TO.P,J6,2*%
%TO.N,/PD8*%
X98298000Y-96139000D03*
%TO.P,J6,3*%
%TO.N,/PD9*%
X98298000Y-93599000D03*
%TO.P,J6,4*%
%TO.N,/PD10*%
X98298000Y-91059000D03*
%TO.P,J6,5*%
%TO.N,GND*%
X98298000Y-88519000D03*
%TD*%
%TO.P,R7,1*%
%TO.N,+3V3*%
%TA.AperFunction,SMDPad,CuDef*%
G36*
G01*
X106840060Y-93845360D02*
X106840060Y-93525360D01*
G75*
G02*
X107000060Y-93365360I160000J0D01*
G01*
X107395060Y-93365360D01*
G75*
G02*
X107555060Y-93525360I0J-160000D01*
G01*
X107555060Y-93845360D01*
G75*
G02*
X107395060Y-94005360I-160000J0D01*
G01*
X107000060Y-94005360D01*
G75*
G02*
X106840060Y-93845360I0J160000D01*
G01*
G37*
%TD.AperFunction*%
%TO.P,R7,2*%
%TO.N,/RESET*%
%TA.AperFunction,SMDPad,CuDef*%
G36*
G01*
X108035060Y-93845360D02*
X108035060Y-93525360D01*
G75*
G02*
X108195060Y-93365360I160000J0D01*
G01*
X108590060Y-93365360D01*
G75*
G02*
X108750060Y-93525360I0J-160000D01*
G01*
X108750060Y-93845360D01*
G75*
G02*
X108590060Y-94005360I-160000J0D01*
G01*
X108195060Y-94005360D01*
G75*
G02*
X108035060Y-93845360I0J160000D01*
G01*
G37*
%TD.AperFunction*%
%TD*%
%TO.P,R8,2*%
%TO.N,/SVREF*%
%TA.AperFunction,SMDPad,CuDef*%
G36*
G01*
X104809260Y-89062540D02*
X104809260Y-88742540D01*
G75*
G02*
X104969260Y-88582540I160000J0D01*
G01*
X105364260Y-88582540D01*
G75*
G02*
X105524260Y-88742540I0J-160000D01*
G01*
X105524260Y-89062540D01*
G75*
G02*
X105364260Y-89222540I-160000J0D01*
G01*
X104969260Y-89222540D01*
G75*
G02*
X104809260Y-89062540I0J160000D01*
G01*
G37*
%TD.AperFunction*%
%TO.P,R8,1*%
%TO.N,+2V5*%
%TA.AperFunction,SMDPad,CuDef*%
G36*
G01*
X103614260Y-89062540D02*
X103614260Y-88742540D01*
G75*
G02*
X103774260Y-88582540I160000J0D01*
G01*
X104169260Y-88582540D01*
G75*
G02*
X104329260Y-88742540I0J-160000D01*
G01*
X104329260Y-89062540D01*
G75*
G02*
X104169260Y-89222540I-160000J0D01*
G01*
X103774260Y-89222540D01*
G75*
G02*
X103614260Y-89062540I0J160000D01*
G01*
G37*
%TD.AperFunction*%
%TD*%
%TO.P,R9,1*%
%TO.N,/SVREF*%
%TA.AperFunction,SMDPad,CuDef*%
G36*
G01*
X106471740Y-88605400D02*
X106791740Y-88605400D01*
G75*
G02*
X106951740Y-88765400I0J-160000D01*
G01*
X106951740Y-89160400D01*
G75*
G02*
X106791740Y-89320400I-160000J0D01*
G01*
X106471740Y-89320400D01*
G75*
G02*
X106311740Y-89160400I0J160000D01*
G01*
X106311740Y-88765400D01*
G75*
G02*
X106471740Y-88605400I160000J0D01*
G01*
G37*
%TD.AperFunction*%
%TO.P,R9,2*%
%TO.N,GND*%
%TA.AperFunction,SMDPad,CuDef*%
G36*
G01*
X106471740Y-89800400D02*
X106791740Y-89800400D01*
G75*
G02*
X106951740Y-89960400I0J-160000D01*
G01*
X106951740Y-90355400D01*
G75*
G02*
X106791740Y-90515400I-160000J0D01*
G01*
X106471740Y-90515400D01*
G75*
G02*
X106311740Y-90355400I0J160000D01*
G01*
X106311740Y-89960400D01*
G75*
G02*
X106471740Y-89800400I160000J0D01*
G01*
G37*
%TD.AperFunction*%
%TD*%
D10*
%TO.P,U2,1*%
%TO.N,/USB_VBUS*%
X100808000Y-93660000D03*
%TO.P,U2,3*%
X102108000Y-93660000D03*
%TO.P,U2,2*%
%TO.N,GND*%
X101458000Y-93660000D03*
%TO.P,U2,4*%
%TO.N,N/C*%
X102108000Y-91760000D03*
%TO.P,U2,5*%
%TO.N,+1V1*%
X100808000Y-91760000D03*
%TD*%
D19*
%TO.P,U3,5*%
%TO.N,+2V5*%
X102677000Y-89012000D03*
%TO.P,U3,4*%
%TO.N,N/C*%
X102677000Y-90312000D03*
%TO.P,U3,2*%
%TO.N,GND*%
X100777000Y-89662000D03*
%TO.P,U3,3*%
%TO.N,/USB_VBUS*%
X100777000Y-90312000D03*
%TO.P,U3,1*%
X100777000Y-89012000D03*
%TD*%
D20*
%TO.P,Y1,1*%
%TO.N,/CLKP*%
X111474520Y-89058240D03*
%TO.P,Y1,2*%
%TO.N,GND*%
X108174520Y-89058240D03*
%TO.P,Y1,3*%
%TO.N,/CLKN*%
X108174520Y-91058240D03*
%TO.P,Y1,4*%
%TO.N,GND*%
X111474520Y-91058240D03*
%TD*%
D21*
%TO.N,+1V1*%
X108619997Y-98044000D03*
X109347000Y-90170000D03*
X102395634Y-90912001D03*
%TO.N,GND*%
X111525000Y-97901000D03*
%TO.N,+2V5*%
X103345806Y-99820086D03*
X103967344Y-88835067D03*
%TO.N,+3V3*%
X108020036Y-98050998D03*
X106642432Y-98083340D03*
X111276968Y-100554851D03*
X102021627Y-96499689D03*
X112699657Y-91541865D03*
%TO.N,/CLKP*%
X112176560Y-92736860D03*
%TO.N,/CLKN*%
X110462669Y-92591633D03*
%TO.N,/RESET*%
X109220000Y-98044000D03*
X102421651Y-97282844D03*
%TO.N,/USB_VBUS*%
X102429998Y-94457195D03*
%TO.N,/SD0_D1*%
X110445644Y-95425286D03*
%TO.N,/SD0_D0*%
X109950000Y-98044000D03*
%TO.N,/SD0_CLK*%
X110386072Y-94334000D03*
%TO.N,/SD0_CMD*%
X111532594Y-94183276D03*
%TO.N,/SD0_D3*%
X111530346Y-93583280D03*
%TO.N,/SD0_D2*%
X109970002Y-92934096D03*
%TO.N,/SVREF*%
X105899749Y-89934189D03*
%TD*%
D22*
%TO.N,+1V1*%
X101990997Y-90812001D02*
X103959199Y-90812001D01*
X101042998Y-91760000D02*
X101990997Y-90812001D01*
X103959199Y-90812001D02*
X104006840Y-90764360D01*
X100808000Y-91760000D02*
X101042998Y-91760000D01*
%TO.N,GND*%
X111525000Y-95311000D02*
X111525000Y-97901000D01*
X101125000Y-100198000D02*
X102400000Y-101473000D01*
X101125000Y-97461000D02*
X101125000Y-100198000D01*
X111525000Y-99266002D02*
X111525000Y-97901000D01*
X111040001Y-99751001D02*
X111525000Y-99266002D01*
X108350001Y-99751001D02*
X111040001Y-99751001D01*
X108250000Y-99651000D02*
X108350001Y-99751001D01*
X108250000Y-98951000D02*
X108250000Y-99651000D01*
X108250000Y-99651000D02*
X108149999Y-99751001D01*
X104121999Y-99751001D02*
X102400000Y-101473000D01*
X108149999Y-99751001D02*
X104121999Y-99751001D01*
X111508924Y-91058240D02*
X111474520Y-91058240D01*
X112786570Y-92335886D02*
X111508924Y-91058240D01*
X112786570Y-93261850D02*
X112786570Y-92335886D01*
X112176560Y-93871860D02*
X112786570Y-93261850D01*
X108807760Y-89058240D02*
X108174520Y-89058240D01*
X111506760Y-91058240D02*
X111474520Y-91058240D01*
X114046000Y-88519000D02*
X111506760Y-91058240D01*
X107836278Y-92710000D02*
X108017500Y-92710000D01*
X106206480Y-92710000D02*
X106123740Y-92792740D01*
X108017500Y-92710000D02*
X106206480Y-92710000D01*
X104358440Y-93382158D02*
X104358440Y-93797160D01*
X101458000Y-93244998D02*
X101458000Y-93660000D01*
X101667999Y-93034999D02*
X101458000Y-93244998D01*
X104011281Y-93034999D02*
X101667999Y-93034999D01*
X104358440Y-93382158D02*
X104011281Y-93034999D01*
X100777000Y-89662000D02*
X101302000Y-89662000D01*
X106355450Y-90434190D02*
X106631740Y-90157900D01*
X105456710Y-90434190D02*
X106355450Y-90434190D01*
X105146920Y-90124400D02*
X105456710Y-90434190D01*
X105146920Y-89814400D02*
X105146920Y-90124400D01*
X105456710Y-90449490D02*
X105141840Y-90764360D01*
X105456710Y-90434190D02*
X105456710Y-90449490D01*
X101402001Y-88571999D02*
X101402001Y-89561999D01*
X101342001Y-88511999D02*
X101402001Y-88571999D01*
X100211999Y-88511999D02*
X101342001Y-88511999D01*
X100204998Y-88519000D02*
X100211999Y-88511999D01*
X101402001Y-89561999D02*
X101302000Y-89662000D01*
X98298000Y-88519000D02*
X100204998Y-88519000D01*
X101402001Y-90752001D02*
X101019003Y-91134999D01*
X101402001Y-89871999D02*
X101402001Y-90752001D01*
X101192002Y-89662000D02*
X101402001Y-89871999D01*
X100777000Y-89662000D02*
X101192002Y-89662000D01*
X100307999Y-92325001D02*
X100367999Y-92385001D01*
X100307999Y-91194999D02*
X100307999Y-92325001D01*
X100367999Y-91134999D02*
X100307999Y-91194999D01*
X101019003Y-91134999D02*
X100367999Y-91134999D01*
X101018001Y-92385001D02*
X101667999Y-93034999D01*
X100367999Y-92385001D02*
X101018001Y-92385001D01*
X108934760Y-89058240D02*
X111252000Y-86741000D01*
X108174520Y-89058240D02*
X108934760Y-89058240D01*
X113030000Y-88519000D02*
X114046000Y-88519000D01*
X111252000Y-86741000D02*
X113030000Y-88519000D01*
X112176560Y-94659440D02*
X112176560Y-93871860D01*
X111525000Y-95311000D02*
X112176560Y-94659440D01*
X107731400Y-89058240D02*
X106631740Y-90157900D01*
X108174520Y-89058240D02*
X107731400Y-89058240D01*
X106123740Y-91746260D02*
X106123740Y-92792740D01*
X105141840Y-90764360D02*
X106123740Y-91746260D01*
X101691470Y-88282530D02*
X101402001Y-88571999D01*
X107398810Y-88282530D02*
X101691470Y-88282530D01*
X108174520Y-89058240D02*
X107398810Y-88282530D01*
%TO.N,+2V5*%
X103971760Y-89774240D02*
X104011920Y-89814400D01*
X103971760Y-88902540D02*
X103971760Y-89774240D01*
X102786460Y-88902540D02*
X102677000Y-89012000D01*
X103971760Y-88902540D02*
X102786460Y-88902540D01*
%TO.N,+3V3*%
X106050000Y-98675772D02*
X106642432Y-98083340D01*
X106050000Y-98951000D02*
X106050000Y-98675772D01*
X106366120Y-93685360D02*
X106123740Y-93927740D01*
X107197560Y-93685360D02*
X106366120Y-93685360D01*
X105368159Y-93172159D02*
X106123740Y-93927740D01*
X104858439Y-93172159D02*
X105368159Y-93172159D01*
X103708440Y-92022160D02*
X104858439Y-93172159D01*
X103708440Y-91897160D02*
X103708440Y-92022160D01*
X105229309Y-94822171D02*
X103699145Y-94822171D01*
X103699145Y-94822171D02*
X102021627Y-96499689D01*
X106123740Y-93927740D02*
X105229309Y-94822171D01*
%TO.N,/CLKP*%
X112176560Y-92736860D02*
X111473785Y-92034085D01*
X110374519Y-90158241D02*
X111474520Y-89058240D01*
X110374519Y-91948241D02*
X110374519Y-90158241D01*
X110460363Y-92034085D02*
X110374519Y-91948241D01*
X111473785Y-92034085D02*
X110460363Y-92034085D01*
%TO.N,/CLKN*%
X110210003Y-92434095D02*
X109428405Y-92434095D01*
X109428405Y-92434095D02*
X109152500Y-92710000D01*
X110407168Y-92631260D02*
X110210003Y-92434095D01*
X110423042Y-92631260D02*
X110407168Y-92631260D01*
X110462669Y-92591633D02*
X110423042Y-92631260D01*
X109152500Y-92036220D02*
X108174520Y-91058240D01*
X109152500Y-92710000D02*
X109152500Y-92036220D01*
%TO.N,/RESET*%
X108392560Y-93685360D02*
X108392560Y-94064720D01*
X108392560Y-94064720D02*
X106187990Y-96269290D01*
X106102300Y-96354980D02*
X105909921Y-96354981D01*
X106187990Y-96269290D02*
X106102300Y-96354980D01*
X105909921Y-96354981D02*
X105401925Y-96862980D01*
X105401925Y-96862980D02*
X104851200Y-96862980D01*
X103572321Y-96862980D02*
X103334820Y-97100482D01*
X104851200Y-96862980D02*
X103572321Y-96862980D01*
X103152458Y-97282844D02*
X102421651Y-97282844D01*
X103334820Y-97100482D02*
X103152458Y-97282844D01*
%TO.N,/USB_VBUS*%
X105008440Y-93797160D02*
X105008440Y-94254560D01*
X103708440Y-94212162D02*
X103708440Y-93797160D01*
X103918439Y-94422161D02*
X103708440Y-94212162D01*
X104840839Y-94422161D02*
X103918439Y-94422161D01*
X105008440Y-94254560D02*
X104840839Y-94422161D01*
X102108000Y-94234000D02*
X102108000Y-93660000D01*
X102296161Y-94422161D02*
X102108000Y-94234000D01*
X102051163Y-94422161D02*
X101990002Y-94361000D01*
X102427839Y-94422161D02*
X102051163Y-94422161D01*
X103918439Y-94422161D02*
X102427839Y-94422161D01*
X102427839Y-94422161D02*
X102296161Y-94422161D01*
X100808000Y-94075002D02*
X100808000Y-93660000D01*
X101093998Y-94361000D02*
X100808000Y-94075002D01*
X101990002Y-94361000D02*
X101093998Y-94361000D01*
X100808000Y-93660000D02*
X100307999Y-93159999D01*
X99907989Y-92759989D02*
X100808000Y-93660000D01*
X100151999Y-90785300D02*
X99907989Y-91029310D01*
X100361998Y-89012000D02*
X100151999Y-89221999D01*
X99907989Y-91029310D02*
X99907989Y-92759989D01*
X100777000Y-89012000D02*
X100361998Y-89012000D01*
X100777000Y-90312000D02*
X100442000Y-90312000D01*
X100151999Y-90602001D02*
X100151999Y-90785300D01*
X100442000Y-90312000D02*
X100151999Y-90602001D01*
X100151999Y-89221999D02*
X100151999Y-90602001D01*
%TO.N,/SD0_D1*%
X110450000Y-95429642D02*
X110445644Y-95425286D01*
X110450000Y-98951000D02*
X110450000Y-95429642D01*
%TO.N,/SD0_D0*%
X109350000Y-98644000D02*
X109950000Y-98044000D01*
X109350000Y-98951000D02*
X109350000Y-98644000D01*
%TO.N,/SD0_CLK*%
X107150000Y-97570072D02*
X110386072Y-94334000D01*
X107150000Y-98951000D02*
X107150000Y-97570072D01*
%TO.N,/SD0_CMD*%
X104950000Y-98660998D02*
X104950000Y-98951000D01*
X110626073Y-93833999D02*
X110146071Y-93833999D01*
X110146071Y-93833999D02*
X109886071Y-94093999D01*
X110886073Y-94093999D02*
X110626073Y-93833999D01*
X109886071Y-94093999D02*
X109886071Y-94268303D01*
X106378661Y-97583339D02*
X105811001Y-98150999D01*
X105811001Y-98150999D02*
X105459999Y-98150999D01*
X109886071Y-94268303D02*
X106571035Y-97583339D01*
X106571035Y-97583339D02*
X106378661Y-97583339D01*
X105459999Y-98150999D02*
X104950000Y-98660998D01*
X110886073Y-94122073D02*
X111174999Y-94410999D01*
X110886073Y-94093999D02*
X110886073Y-94122073D01*
X111304871Y-94410999D02*
X111532594Y-94183276D01*
X111174999Y-94410999D02*
X111304871Y-94410999D01*
%TO.N,/SD0_D3*%
X105733302Y-97663000D02*
X105978651Y-97417651D01*
X103850000Y-98251000D02*
X104438000Y-97663000D01*
X104438000Y-97663000D02*
X105733302Y-97663000D01*
X103850000Y-98951000D02*
X103850000Y-98251000D01*
X106241301Y-97155000D02*
X106433676Y-97155000D01*
X105978651Y-97417650D02*
X106241301Y-97155000D01*
X105978651Y-97417651D02*
X105978651Y-97417650D01*
X106433676Y-97155000D02*
X109160338Y-94428338D01*
X109160338Y-94428338D02*
X109486061Y-94102615D01*
X109980382Y-93433989D02*
X110791762Y-93433989D01*
X109486061Y-93928310D02*
X109980382Y-93433989D01*
X109486061Y-94102615D02*
X109486061Y-93928310D01*
X110941053Y-93583280D02*
X111530346Y-93583280D01*
X110791762Y-93433989D02*
X110941053Y-93583280D01*
%TO.N,/SD0_D2*%
X102750000Y-98251000D02*
X103738010Y-97262990D01*
X102750000Y-98951000D02*
X102750000Y-98251000D01*
X105567614Y-97262990D02*
X106075612Y-96754990D01*
X103738010Y-97262990D02*
X105567614Y-97262990D01*
X106075612Y-96754990D02*
X106267988Y-96754990D01*
X106267988Y-96754990D02*
X108760330Y-94262648D01*
X108760330Y-94262648D02*
X109086051Y-93936927D01*
X109086051Y-93762621D02*
X109814693Y-93033979D01*
X109086051Y-93936927D02*
X109086051Y-93762621D01*
X109870119Y-93033979D02*
X109970002Y-92934096D01*
X109814693Y-93033979D02*
X109870119Y-93033979D01*
%TO.N,/SVREF*%
X105899749Y-89278029D02*
X105899749Y-89934189D01*
X105524260Y-88902540D02*
X105899749Y-89278029D01*
X105166760Y-88902540D02*
X105524260Y-88902540D01*
X106214878Y-88962900D02*
X105899749Y-89278029D01*
X106631740Y-88962900D02*
X106214878Y-88962900D01*
%TD*%
M02*
