M48
; DRILL file {KiCad (5.1.9)-1} date 08/06/21 11:34:57
; FORMAT={-:-/ absolute / metric / decimal}
; #@! TF.CreationDate,2021-08-06T11:34:57+02:00
; #@! TF.GenerationSoftware,Kicad,Pcbnew,(5.1.9)-1
; #@! TF.FileFunction,Plated,1,4,PTH
FMAT,2
METRIC
T1C0.200
T2C1.000
%
G90
G05
T1
X102.022Y-96.5
X102.396Y-90.912
X102.422Y-97.283
X102.43Y-94.457
X103.346Y-99.82
X103.967Y-88.835
X105.9Y-89.934
X106.642Y-98.083
X108.02Y-98.051
X108.62Y-98.044
X109.22Y-98.044
X109.347Y-90.17
X109.95Y-98.044
X109.97Y-92.934
X110.386Y-94.334
X110.446Y-95.425
X110.463Y-92.592
X111.277Y-100.555
X111.525Y-97.901
X111.53Y-93.583
X111.533Y-94.183
X112.177Y-92.737
X112.7Y-91.542
T2
X98.298Y-88.519
X98.298Y-91.059
X98.298Y-93.599
X98.298Y-96.139
X98.298Y-98.679
X101.092Y-86.741
X102.4Y-101.473
X103.632Y-86.741
X104.94Y-101.473
X106.172Y-86.741
X107.48Y-101.473
X108.712Y-86.741
X110.02Y-101.473
X111.252Y-86.741
X114.046Y-88.519
X114.046Y-91.059
X114.046Y-93.599
X114.046Y-96.139
X114.046Y-98.679
T0
M30
