%TF.GenerationSoftware,KiCad,Pcbnew,(5.1.9)-1*%
%TF.CreationDate,2021-08-06T11:33:52+02:00*%
%TF.ProjectId,PumpkinPi,50756d70-6b69-46e5-9069-2e6b69636164,rev?*%
%TF.SameCoordinates,Original*%
%TF.FileFunction,Paste,Bot*%
%TF.FilePolarity,Positive*%
%FSLAX46Y46*%
G04 Gerber Fmt 4.6, Leading zero omitted, Abs format (unit mm)*
G04 Created by KiCad (PCBNEW (5.1.9)-1) date 2021-08-06 11:33:52*
%MOMM*%
%LPD*%
G01*
G04 APERTURE LIST*
%ADD10O,0.400000X0.200000*%
%ADD11O,0.200000X0.400000*%
%ADD12R,0.185000X0.185000*%
G04 APERTURE END LIST*
D10*
%TO.C,U1*%
X101400000Y-98434000D03*
X101400000Y-98034000D03*
X101400000Y-97634000D03*
X101400000Y-97234000D03*
X101400000Y-96834000D03*
X101400000Y-96434000D03*
X101400000Y-96034000D03*
X101400000Y-95634000D03*
X101400000Y-95234000D03*
X101400000Y-94834000D03*
X101400000Y-94434000D03*
X101400000Y-94034000D03*
X101400000Y-93634000D03*
X101400000Y-93234000D03*
X101400000Y-92834000D03*
X101400000Y-92434000D03*
X101400000Y-92034000D03*
X101400000Y-91634000D03*
X101400000Y-91234000D03*
X101400000Y-90834000D03*
X101400000Y-90434000D03*
X101400000Y-90034000D03*
D11*
X102000000Y-89434000D03*
X102400000Y-89434000D03*
X102800000Y-89434000D03*
X103200000Y-89434000D03*
X103600000Y-89434000D03*
X104000000Y-89434000D03*
X104400000Y-89434000D03*
X104800000Y-89434000D03*
X105200000Y-89434000D03*
X105600000Y-89434000D03*
X106000000Y-89434000D03*
X106400000Y-89434000D03*
X106800000Y-89434000D03*
X107200000Y-89434000D03*
X107600000Y-89434000D03*
X108000000Y-89434000D03*
X108400000Y-89434000D03*
X108800000Y-89434000D03*
X109200000Y-89434000D03*
X109600000Y-89434000D03*
X110000000Y-89434000D03*
X110400000Y-89434000D03*
D10*
X111000000Y-90034000D03*
X111000000Y-90434000D03*
X111000000Y-90834000D03*
X111000000Y-91234000D03*
X111000000Y-91634000D03*
X111000000Y-92034000D03*
X111000000Y-92434000D03*
X111000000Y-92834000D03*
X111000000Y-93234000D03*
X111000000Y-93634000D03*
X111000000Y-94034000D03*
X111000000Y-94434000D03*
X111000000Y-94834000D03*
X111000000Y-95234000D03*
X111000000Y-95634000D03*
X111000000Y-96034000D03*
X111000000Y-96434000D03*
X111000000Y-96834000D03*
X111000000Y-97234000D03*
X111000000Y-97634000D03*
X111000000Y-98034000D03*
X111000000Y-98434000D03*
D11*
X110400000Y-99034000D03*
X110000000Y-99034000D03*
X109600000Y-99034000D03*
X109200000Y-99034000D03*
X108800000Y-99034000D03*
X108400000Y-99034000D03*
X108000000Y-99034000D03*
X107600000Y-99034000D03*
X107200000Y-99034000D03*
X106800000Y-99034000D03*
X106400000Y-99034000D03*
X106000000Y-99034000D03*
X105600000Y-99034000D03*
X105200000Y-99034000D03*
X104800000Y-99034000D03*
X104400000Y-99034000D03*
X104000000Y-99034000D03*
X103600000Y-99034000D03*
X103200000Y-99034000D03*
X102800000Y-99034000D03*
X102400000Y-99034000D03*
X102000000Y-99034000D03*
D12*
X103672500Y-96761500D03*
X103672500Y-95076500D03*
X103672500Y-93391500D03*
X103672500Y-91706500D03*
X105357500Y-96761500D03*
X105357500Y-95076500D03*
X105357500Y-93391500D03*
X105357500Y-91706500D03*
X107042500Y-96761500D03*
X107042500Y-95076500D03*
X107042500Y-93391500D03*
X107042500Y-91706500D03*
X108727500Y-96761500D03*
X108727500Y-95076500D03*
X108727500Y-93391500D03*
X108727500Y-91706500D03*
%TD*%
M02*
