%FSLAX45Y45*%
G04 Gerber Fmt 4.5, Leading zero omitted, Abs format (unit mm)*
G04 Created by KiCad (PCBNEW (5.1.9)-1) date 2021-08-06 11:35:15*
%MOMM*%
%LPD*%
G01*
G04 APERTURE LIST*
%TA.AperFunction,Profile*%
%ADD10C,0.050000*%
%TD*%
%ADD11C,0.200000*%
%ADD12C,0.300000*%
G04 APERTURE END LIST*
D10*
X11540000Y-10000000D02*
X11240000Y-10000000D01*
X11540000Y-8550000D02*
X11540000Y-10000000D01*
X9700000Y-8550000D02*
X11540000Y-8550000D01*
X9700000Y-10000000D02*
X9700000Y-8550000D01*
X10000000Y-10000000D02*
X9700000Y-10000000D01*
X11240000Y-10000000D02*
X11240000Y-11480000D01*
X10000000Y-11480000D02*
X11240000Y-11480000D01*
X10000000Y-10000000D02*
X10000000Y-11480000D01*
D11*
X10192163Y-9639969D02*
X10212163Y-9659969D01*
X10212163Y-9639969D02*
X10192163Y-9659969D01*
X10229563Y-9081200D02*
X10249563Y-9101200D01*
X10249563Y-9081200D02*
X10229563Y-9101200D01*
X10232165Y-9718284D02*
X10252165Y-9738284D01*
X10252165Y-9718284D02*
X10232165Y-9738284D01*
X10233000Y-9435720D02*
X10253000Y-9455720D01*
X10253000Y-9435720D02*
X10233000Y-9455720D01*
X10324581Y-9972009D02*
X10344581Y-9992009D01*
X10344581Y-9972009D02*
X10324581Y-9992009D01*
X10386734Y-8873507D02*
X10406734Y-8893507D01*
X10406734Y-8873507D02*
X10386734Y-8893507D01*
X10579975Y-8983419D02*
X10599975Y-9003419D01*
X10599975Y-8983419D02*
X10579975Y-9003419D01*
X10654243Y-9798334D02*
X10674243Y-9818334D01*
X10674243Y-9798334D02*
X10654243Y-9818334D01*
X10792004Y-9795100D02*
X10812004Y-9815100D01*
X10812004Y-9795100D02*
X10792004Y-9815100D01*
X10852000Y-9794400D02*
X10872000Y-9814400D01*
X10872000Y-9794400D02*
X10852000Y-9814400D01*
X10912000Y-9794400D02*
X10932000Y-9814400D01*
X10932000Y-9794400D02*
X10912000Y-9814400D01*
X10924700Y-9007000D02*
X10944700Y-9027000D01*
X10944700Y-9007000D02*
X10924700Y-9027000D01*
X10985000Y-9794400D02*
X11005000Y-9814400D01*
X11005000Y-9794400D02*
X10985000Y-9814400D01*
X10987000Y-9283410D02*
X11007000Y-9303410D01*
X11007000Y-9283410D02*
X10987000Y-9303410D01*
X11028607Y-9423400D02*
X11048607Y-9443400D01*
X11048607Y-9423400D02*
X11028607Y-9443400D01*
X11034564Y-9532529D02*
X11054564Y-9552529D01*
X11054564Y-9532529D02*
X11034564Y-9552529D01*
X11036267Y-9249163D02*
X11056267Y-9269163D01*
X11056267Y-9249163D02*
X11036267Y-9269163D01*
X11117697Y-10045485D02*
X11137697Y-10065485D01*
X11137697Y-10045485D02*
X11117697Y-10065485D01*
X11142500Y-9780100D02*
X11162500Y-9800100D01*
X11162500Y-9780100D02*
X11142500Y-9800100D01*
X11143035Y-9348328D02*
X11163035Y-9368328D01*
X11163035Y-9348328D02*
X11143035Y-9368328D01*
X11143259Y-9408328D02*
X11163259Y-9428328D01*
X11163259Y-9408328D02*
X11143259Y-9428328D01*
X11207656Y-9263686D02*
X11227656Y-9283686D01*
X11227656Y-9263686D02*
X11207656Y-9283686D01*
X11259966Y-9144187D02*
X11279966Y-9164187D01*
X11279966Y-9144187D02*
X11259966Y-9164187D01*
X9879800Y-8851900D02*
G75*
G03*
X9879800Y-8851900I-50000J0D01*
G01*
X9879800Y-9105900D02*
G75*
G03*
X9879800Y-9105900I-50000J0D01*
G01*
X9879800Y-9359900D02*
G75*
G03*
X9879800Y-9359900I-50000J0D01*
G01*
X9879800Y-9613900D02*
G75*
G03*
X9879800Y-9613900I-50000J0D01*
G01*
X9879800Y-9867900D02*
G75*
G03*
X9879800Y-9867900I-50000J0D01*
G01*
X10159200Y-8674100D02*
G75*
G03*
X10159200Y-8674100I-50000J0D01*
G01*
X10290000Y-10147300D02*
G75*
G03*
X10290000Y-10147300I-50000J0D01*
G01*
X10413200Y-8674100D02*
G75*
G03*
X10413200Y-8674100I-50000J0D01*
G01*
X10544000Y-10147300D02*
G75*
G03*
X10544000Y-10147300I-50000J0D01*
G01*
X10667200Y-8674100D02*
G75*
G03*
X10667200Y-8674100I-50000J0D01*
G01*
X10798000Y-10147300D02*
G75*
G03*
X10798000Y-10147300I-50000J0D01*
G01*
X10921200Y-8674100D02*
G75*
G03*
X10921200Y-8674100I-50000J0D01*
G01*
X11052000Y-10147300D02*
G75*
G03*
X11052000Y-10147300I-50000J0D01*
G01*
X11175200Y-8674100D02*
G75*
G03*
X11175200Y-8674100I-50000J0D01*
G01*
X11454600Y-8851900D02*
G75*
G03*
X11454600Y-8851900I-50000J0D01*
G01*
X11454600Y-9105900D02*
G75*
G03*
X11454600Y-9105900I-50000J0D01*
G01*
X11454600Y-9359900D02*
G75*
G03*
X11454600Y-9359900I-50000J0D01*
G01*
X11454600Y-9613900D02*
G75*
G03*
X11454600Y-9613900I-50000J0D01*
G01*
X11454600Y-9867900D02*
G75*
G03*
X11454600Y-9867900I-50000J0D01*
G01*
D12*
X9983928Y-11948214D02*
X9983928Y-11648214D01*
X10055357Y-11648214D01*
X10098214Y-11662500D01*
X10126786Y-11691071D01*
X10141071Y-11719643D01*
X10155357Y-11776786D01*
X10155357Y-11819643D01*
X10141071Y-11876786D01*
X10126786Y-11905357D01*
X10098214Y-11933929D01*
X10055357Y-11948214D01*
X9983928Y-11948214D01*
X10283928Y-11948214D02*
X10283928Y-11748214D01*
X10283928Y-11805357D02*
X10298214Y-11776786D01*
X10312500Y-11762500D01*
X10341071Y-11748214D01*
X10369643Y-11748214D01*
X10469643Y-11948214D02*
X10469643Y-11748214D01*
X10469643Y-11648214D02*
X10455357Y-11662500D01*
X10469643Y-11676786D01*
X10483928Y-11662500D01*
X10469643Y-11648214D01*
X10469643Y-11676786D01*
X10655357Y-11948214D02*
X10626786Y-11933929D01*
X10612500Y-11905357D01*
X10612500Y-11648214D01*
X10812500Y-11948214D02*
X10783928Y-11933929D01*
X10769643Y-11905357D01*
X10769643Y-11648214D01*
X11155357Y-11948214D02*
X11155357Y-11648214D01*
X11255357Y-11862500D01*
X11355357Y-11648214D01*
X11355357Y-11948214D01*
X11626786Y-11948214D02*
X11626786Y-11791071D01*
X11612500Y-11762500D01*
X11583928Y-11748214D01*
X11526786Y-11748214D01*
X11498214Y-11762500D01*
X11626786Y-11933929D02*
X11598214Y-11948214D01*
X11526786Y-11948214D01*
X11498214Y-11933929D01*
X11483928Y-11905357D01*
X11483928Y-11876786D01*
X11498214Y-11848214D01*
X11526786Y-11833929D01*
X11598214Y-11833929D01*
X11626786Y-11819643D01*
X11769643Y-11748214D02*
X11769643Y-12048214D01*
X11769643Y-11762500D02*
X11798214Y-11748214D01*
X11855357Y-11748214D01*
X11883928Y-11762500D01*
X11898214Y-11776786D01*
X11912500Y-11805357D01*
X11912500Y-11891071D01*
X11898214Y-11919643D01*
X11883928Y-11933929D01*
X11855357Y-11948214D01*
X11798214Y-11948214D01*
X11769643Y-11933929D01*
X12041071Y-11919643D02*
X12055357Y-11933929D01*
X12041071Y-11948214D01*
X12026786Y-11933929D01*
X12041071Y-11919643D01*
X12041071Y-11948214D01*
X12041071Y-11762500D02*
X12055357Y-11776786D01*
X12041071Y-11791071D01*
X12026786Y-11776786D01*
X12041071Y-11762500D01*
X12041071Y-11791071D01*
X9677500Y-12432500D02*
X9697500Y-12452500D01*
X9697500Y-12432500D02*
X9677500Y-12452500D01*
X10041071Y-12278214D02*
X10069643Y-12278214D01*
X10098214Y-12292500D01*
X10112500Y-12306786D01*
X10126786Y-12335357D01*
X10141071Y-12392500D01*
X10141071Y-12463929D01*
X10126786Y-12521071D01*
X10112500Y-12549643D01*
X10098214Y-12563929D01*
X10069643Y-12578214D01*
X10041071Y-12578214D01*
X10012500Y-12563929D01*
X9998214Y-12549643D01*
X9983928Y-12521071D01*
X9969643Y-12463929D01*
X9969643Y-12392500D01*
X9983928Y-12335357D01*
X9998214Y-12306786D01*
X10012500Y-12292500D01*
X10041071Y-12278214D01*
X10269643Y-12549643D02*
X10283928Y-12563929D01*
X10269643Y-12578214D01*
X10255357Y-12563929D01*
X10269643Y-12549643D01*
X10269643Y-12578214D01*
X10398214Y-12306786D02*
X10412500Y-12292500D01*
X10441071Y-12278214D01*
X10512500Y-12278214D01*
X10541071Y-12292500D01*
X10555357Y-12306786D01*
X10569643Y-12335357D01*
X10569643Y-12363929D01*
X10555357Y-12406786D01*
X10383928Y-12578214D01*
X10569643Y-12578214D01*
X10755357Y-12278214D02*
X10783928Y-12278214D01*
X10812500Y-12292500D01*
X10826786Y-12306786D01*
X10841071Y-12335357D01*
X10855357Y-12392500D01*
X10855357Y-12463929D01*
X10841071Y-12521071D01*
X10826786Y-12549643D01*
X10812500Y-12563929D01*
X10783928Y-12578214D01*
X10755357Y-12578214D01*
X10726786Y-12563929D01*
X10712500Y-12549643D01*
X10698214Y-12521071D01*
X10683928Y-12463929D01*
X10683928Y-12392500D01*
X10698214Y-12335357D01*
X10712500Y-12306786D01*
X10726786Y-12292500D01*
X10755357Y-12278214D01*
X10983928Y-12578214D02*
X10983928Y-12378214D01*
X10983928Y-12406786D02*
X10998214Y-12392500D01*
X11026786Y-12378214D01*
X11069643Y-12378214D01*
X11098214Y-12392500D01*
X11112500Y-12421071D01*
X11112500Y-12578214D01*
X11112500Y-12421071D02*
X11126786Y-12392500D01*
X11155357Y-12378214D01*
X11198214Y-12378214D01*
X11226786Y-12392500D01*
X11241071Y-12421071D01*
X11241071Y-12578214D01*
X11383928Y-12578214D02*
X11383928Y-12378214D01*
X11383928Y-12406786D02*
X11398214Y-12392500D01*
X11426786Y-12378214D01*
X11469643Y-12378214D01*
X11498214Y-12392500D01*
X11512500Y-12421071D01*
X11512500Y-12578214D01*
X11512500Y-12421071D02*
X11526786Y-12392500D01*
X11555357Y-12378214D01*
X11598214Y-12378214D01*
X11626786Y-12392500D01*
X11641071Y-12421071D01*
X11641071Y-12578214D01*
X12226786Y-12263929D02*
X11969643Y-12649643D01*
X12612500Y-12278214D02*
X12641071Y-12278214D01*
X12669643Y-12292500D01*
X12683928Y-12306786D01*
X12698214Y-12335357D01*
X12712500Y-12392500D01*
X12712500Y-12463929D01*
X12698214Y-12521071D01*
X12683928Y-12549643D01*
X12669643Y-12563929D01*
X12641071Y-12578214D01*
X12612500Y-12578214D01*
X12583928Y-12563929D01*
X12569643Y-12549643D01*
X12555357Y-12521071D01*
X12541071Y-12463929D01*
X12541071Y-12392500D01*
X12555357Y-12335357D01*
X12569643Y-12306786D01*
X12583928Y-12292500D01*
X12612500Y-12278214D01*
X12841071Y-12549643D02*
X12855357Y-12563929D01*
X12841071Y-12578214D01*
X12826786Y-12563929D01*
X12841071Y-12549643D01*
X12841071Y-12578214D01*
X13041071Y-12278214D02*
X13069643Y-12278214D01*
X13098214Y-12292500D01*
X13112500Y-12306786D01*
X13126786Y-12335357D01*
X13141071Y-12392500D01*
X13141071Y-12463929D01*
X13126786Y-12521071D01*
X13112500Y-12549643D01*
X13098214Y-12563929D01*
X13069643Y-12578214D01*
X13041071Y-12578214D01*
X13012500Y-12563929D01*
X12998214Y-12549643D01*
X12983928Y-12521071D01*
X12969643Y-12463929D01*
X12969643Y-12392500D01*
X12983928Y-12335357D01*
X12998214Y-12306786D01*
X13012500Y-12292500D01*
X13041071Y-12278214D01*
X13326786Y-12278214D02*
X13355357Y-12278214D01*
X13383928Y-12292500D01*
X13398214Y-12306786D01*
X13412500Y-12335357D01*
X13426786Y-12392500D01*
X13426786Y-12463929D01*
X13412500Y-12521071D01*
X13398214Y-12549643D01*
X13383928Y-12563929D01*
X13355357Y-12578214D01*
X13326786Y-12578214D01*
X13298214Y-12563929D01*
X13283928Y-12549643D01*
X13269643Y-12521071D01*
X13255357Y-12463929D01*
X13255357Y-12392500D01*
X13269643Y-12335357D01*
X13283928Y-12306786D01*
X13298214Y-12292500D01*
X13326786Y-12278214D01*
X13598214Y-12406786D02*
X13569643Y-12392500D01*
X13555357Y-12378214D01*
X13541071Y-12349643D01*
X13541071Y-12335357D01*
X13555357Y-12306786D01*
X13569643Y-12292500D01*
X13598214Y-12278214D01*
X13655357Y-12278214D01*
X13683928Y-12292500D01*
X13698214Y-12306786D01*
X13712500Y-12335357D01*
X13712500Y-12349643D01*
X13698214Y-12378214D01*
X13683928Y-12392500D01*
X13655357Y-12406786D01*
X13598214Y-12406786D01*
X13569643Y-12421071D01*
X13555357Y-12435357D01*
X13541071Y-12463929D01*
X13541071Y-12521071D01*
X13555357Y-12549643D01*
X13569643Y-12563929D01*
X13598214Y-12578214D01*
X13655357Y-12578214D01*
X13683928Y-12563929D01*
X13698214Y-12549643D01*
X13712500Y-12521071D01*
X13712500Y-12463929D01*
X13698214Y-12435357D01*
X13683928Y-12421071D01*
X13655357Y-12406786D01*
X13826786Y-12278214D02*
X13826786Y-12335357D01*
X13941071Y-12278214D02*
X13941071Y-12335357D01*
X14383928Y-12692500D02*
X14369643Y-12678214D01*
X14341071Y-12635357D01*
X14326786Y-12606786D01*
X14312500Y-12563929D01*
X14298214Y-12492500D01*
X14298214Y-12435357D01*
X14312500Y-12363929D01*
X14326786Y-12321071D01*
X14341071Y-12292500D01*
X14369643Y-12249643D01*
X14383928Y-12235357D01*
X14483928Y-12306786D02*
X14498214Y-12292500D01*
X14526786Y-12278214D01*
X14598214Y-12278214D01*
X14626786Y-12292500D01*
X14641071Y-12306786D01*
X14655357Y-12335357D01*
X14655357Y-12363929D01*
X14641071Y-12406786D01*
X14469643Y-12578214D01*
X14655357Y-12578214D01*
X14755357Y-12278214D02*
X14941071Y-12278214D01*
X14841071Y-12392500D01*
X14883928Y-12392500D01*
X14912500Y-12406786D01*
X14926786Y-12421071D01*
X14941071Y-12449643D01*
X14941071Y-12521071D01*
X14926786Y-12549643D01*
X14912500Y-12563929D01*
X14883928Y-12578214D01*
X14798214Y-12578214D01*
X14769643Y-12563929D01*
X14755357Y-12549643D01*
X15298214Y-12578214D02*
X15298214Y-12278214D01*
X15426786Y-12578214D02*
X15426786Y-12421071D01*
X15412500Y-12392500D01*
X15383928Y-12378214D01*
X15341071Y-12378214D01*
X15312500Y-12392500D01*
X15298214Y-12406786D01*
X15612500Y-12578214D02*
X15583928Y-12563929D01*
X15569643Y-12549643D01*
X15555357Y-12521071D01*
X15555357Y-12435357D01*
X15569643Y-12406786D01*
X15583928Y-12392500D01*
X15612500Y-12378214D01*
X15655357Y-12378214D01*
X15683928Y-12392500D01*
X15698214Y-12406786D01*
X15712500Y-12435357D01*
X15712500Y-12521071D01*
X15698214Y-12549643D01*
X15683928Y-12563929D01*
X15655357Y-12578214D01*
X15612500Y-12578214D01*
X15883928Y-12578214D02*
X15855357Y-12563929D01*
X15841071Y-12535357D01*
X15841071Y-12278214D01*
X16112500Y-12563929D02*
X16083928Y-12578214D01*
X16026786Y-12578214D01*
X15998214Y-12563929D01*
X15983928Y-12535357D01*
X15983928Y-12421071D01*
X15998214Y-12392500D01*
X16026786Y-12378214D01*
X16083928Y-12378214D01*
X16112500Y-12392500D01*
X16126786Y-12421071D01*
X16126786Y-12449643D01*
X15983928Y-12478214D01*
X16241071Y-12563929D02*
X16269643Y-12578214D01*
X16326786Y-12578214D01*
X16355357Y-12563929D01*
X16369643Y-12535357D01*
X16369643Y-12521071D01*
X16355357Y-12492500D01*
X16326786Y-12478214D01*
X16283928Y-12478214D01*
X16255357Y-12463929D01*
X16241071Y-12435357D01*
X16241071Y-12421071D01*
X16255357Y-12392500D01*
X16283928Y-12378214D01*
X16326786Y-12378214D01*
X16355357Y-12392500D01*
X16469643Y-12692500D02*
X16483928Y-12678214D01*
X16512500Y-12635357D01*
X16526786Y-12606786D01*
X16541071Y-12563929D01*
X16555357Y-12492500D01*
X16555357Y-12435357D01*
X16541071Y-12363929D01*
X16526786Y-12321071D01*
X16512500Y-12292500D01*
X16483928Y-12249643D01*
X16469643Y-12235357D01*
X9697500Y-12838500D02*
G75*
G03*
X9697500Y-12838500I-50000J0D01*
G01*
X10141071Y-12974214D02*
X9969643Y-12974214D01*
X10055357Y-12974214D02*
X10055357Y-12674214D01*
X10026786Y-12717071D01*
X9998214Y-12745643D01*
X9969643Y-12759929D01*
X10269643Y-12945643D02*
X10283928Y-12959929D01*
X10269643Y-12974214D01*
X10255357Y-12959929D01*
X10269643Y-12945643D01*
X10269643Y-12974214D01*
X10469643Y-12674214D02*
X10498214Y-12674214D01*
X10526786Y-12688500D01*
X10541071Y-12702786D01*
X10555357Y-12731357D01*
X10569643Y-12788500D01*
X10569643Y-12859929D01*
X10555357Y-12917071D01*
X10541071Y-12945643D01*
X10526786Y-12959929D01*
X10498214Y-12974214D01*
X10469643Y-12974214D01*
X10441071Y-12959929D01*
X10426786Y-12945643D01*
X10412500Y-12917071D01*
X10398214Y-12859929D01*
X10398214Y-12788500D01*
X10412500Y-12731357D01*
X10426786Y-12702786D01*
X10441071Y-12688500D01*
X10469643Y-12674214D01*
X10755357Y-12674214D02*
X10783928Y-12674214D01*
X10812500Y-12688500D01*
X10826786Y-12702786D01*
X10841071Y-12731357D01*
X10855357Y-12788500D01*
X10855357Y-12859929D01*
X10841071Y-12917071D01*
X10826786Y-12945643D01*
X10812500Y-12959929D01*
X10783928Y-12974214D01*
X10755357Y-12974214D01*
X10726786Y-12959929D01*
X10712500Y-12945643D01*
X10698214Y-12917071D01*
X10683928Y-12859929D01*
X10683928Y-12788500D01*
X10698214Y-12731357D01*
X10712500Y-12702786D01*
X10726786Y-12688500D01*
X10755357Y-12674214D01*
X10983928Y-12974214D02*
X10983928Y-12774214D01*
X10983928Y-12802786D02*
X10998214Y-12788500D01*
X11026786Y-12774214D01*
X11069643Y-12774214D01*
X11098214Y-12788500D01*
X11112500Y-12817071D01*
X11112500Y-12974214D01*
X11112500Y-12817071D02*
X11126786Y-12788500D01*
X11155357Y-12774214D01*
X11198214Y-12774214D01*
X11226786Y-12788500D01*
X11241071Y-12817071D01*
X11241071Y-12974214D01*
X11383928Y-12974214D02*
X11383928Y-12774214D01*
X11383928Y-12802786D02*
X11398214Y-12788500D01*
X11426786Y-12774214D01*
X11469643Y-12774214D01*
X11498214Y-12788500D01*
X11512500Y-12817071D01*
X11512500Y-12974214D01*
X11512500Y-12817071D02*
X11526786Y-12788500D01*
X11555357Y-12774214D01*
X11598214Y-12774214D01*
X11626786Y-12788500D01*
X11641071Y-12817071D01*
X11641071Y-12974214D01*
X12226786Y-12659929D02*
X11969643Y-13045643D01*
X12612500Y-12674214D02*
X12641071Y-12674214D01*
X12669643Y-12688500D01*
X12683928Y-12702786D01*
X12698214Y-12731357D01*
X12712500Y-12788500D01*
X12712500Y-12859929D01*
X12698214Y-12917071D01*
X12683928Y-12945643D01*
X12669643Y-12959929D01*
X12641071Y-12974214D01*
X12612500Y-12974214D01*
X12583928Y-12959929D01*
X12569643Y-12945643D01*
X12555357Y-12917071D01*
X12541071Y-12859929D01*
X12541071Y-12788500D01*
X12555357Y-12731357D01*
X12569643Y-12702786D01*
X12583928Y-12688500D01*
X12612500Y-12674214D01*
X12841071Y-12945643D02*
X12855357Y-12959929D01*
X12841071Y-12974214D01*
X12826786Y-12959929D01*
X12841071Y-12945643D01*
X12841071Y-12974214D01*
X13041071Y-12674214D02*
X13069643Y-12674214D01*
X13098214Y-12688500D01*
X13112500Y-12702786D01*
X13126786Y-12731357D01*
X13141071Y-12788500D01*
X13141071Y-12859929D01*
X13126786Y-12917071D01*
X13112500Y-12945643D01*
X13098214Y-12959929D01*
X13069643Y-12974214D01*
X13041071Y-12974214D01*
X13012500Y-12959929D01*
X12998214Y-12945643D01*
X12983928Y-12917071D01*
X12969643Y-12859929D01*
X12969643Y-12788500D01*
X12983928Y-12731357D01*
X12998214Y-12702786D01*
X13012500Y-12688500D01*
X13041071Y-12674214D01*
X13241071Y-12674214D02*
X13426786Y-12674214D01*
X13326786Y-12788500D01*
X13369643Y-12788500D01*
X13398214Y-12802786D01*
X13412500Y-12817071D01*
X13426786Y-12845643D01*
X13426786Y-12917071D01*
X13412500Y-12945643D01*
X13398214Y-12959929D01*
X13369643Y-12974214D01*
X13283928Y-12974214D01*
X13255357Y-12959929D01*
X13241071Y-12945643D01*
X13569643Y-12974214D02*
X13626786Y-12974214D01*
X13655357Y-12959929D01*
X13669643Y-12945643D01*
X13698214Y-12902786D01*
X13712500Y-12845643D01*
X13712500Y-12731357D01*
X13698214Y-12702786D01*
X13683928Y-12688500D01*
X13655357Y-12674214D01*
X13598214Y-12674214D01*
X13569643Y-12688500D01*
X13555357Y-12702786D01*
X13541071Y-12731357D01*
X13541071Y-12802786D01*
X13555357Y-12831357D01*
X13569643Y-12845643D01*
X13598214Y-12859929D01*
X13655357Y-12859929D01*
X13683928Y-12845643D01*
X13698214Y-12831357D01*
X13712500Y-12802786D01*
X13826786Y-12674214D02*
X13826786Y-12731357D01*
X13941071Y-12674214D02*
X13941071Y-12731357D01*
X14383928Y-13088500D02*
X14369643Y-13074214D01*
X14341071Y-13031357D01*
X14326786Y-13002786D01*
X14312500Y-12959929D01*
X14298214Y-12888500D01*
X14298214Y-12831357D01*
X14312500Y-12759929D01*
X14326786Y-12717071D01*
X14341071Y-12688500D01*
X14369643Y-12645643D01*
X14383928Y-12631357D01*
X14655357Y-12974214D02*
X14483928Y-12974214D01*
X14569643Y-12974214D02*
X14569643Y-12674214D01*
X14541071Y-12717071D01*
X14512500Y-12745643D01*
X14483928Y-12759929D01*
X14798214Y-12974214D02*
X14855357Y-12974214D01*
X14883928Y-12959929D01*
X14898214Y-12945643D01*
X14926786Y-12902786D01*
X14941071Y-12845643D01*
X14941071Y-12731357D01*
X14926786Y-12702786D01*
X14912500Y-12688500D01*
X14883928Y-12674214D01*
X14826786Y-12674214D01*
X14798214Y-12688500D01*
X14783928Y-12702786D01*
X14769643Y-12731357D01*
X14769643Y-12802786D01*
X14783928Y-12831357D01*
X14798214Y-12845643D01*
X14826786Y-12859929D01*
X14883928Y-12859929D01*
X14912500Y-12845643D01*
X14926786Y-12831357D01*
X14941071Y-12802786D01*
X15298214Y-12974214D02*
X15298214Y-12674214D01*
X15426786Y-12974214D02*
X15426786Y-12817071D01*
X15412500Y-12788500D01*
X15383928Y-12774214D01*
X15341071Y-12774214D01*
X15312500Y-12788500D01*
X15298214Y-12802786D01*
X15612500Y-12974214D02*
X15583928Y-12959929D01*
X15569643Y-12945643D01*
X15555357Y-12917071D01*
X15555357Y-12831357D01*
X15569643Y-12802786D01*
X15583928Y-12788500D01*
X15612500Y-12774214D01*
X15655357Y-12774214D01*
X15683928Y-12788500D01*
X15698214Y-12802786D01*
X15712500Y-12831357D01*
X15712500Y-12917071D01*
X15698214Y-12945643D01*
X15683928Y-12959929D01*
X15655357Y-12974214D01*
X15612500Y-12974214D01*
X15883928Y-12974214D02*
X15855357Y-12959929D01*
X15841071Y-12931357D01*
X15841071Y-12674214D01*
X16112500Y-12959929D02*
X16083928Y-12974214D01*
X16026786Y-12974214D01*
X15998214Y-12959929D01*
X15983928Y-12931357D01*
X15983928Y-12817071D01*
X15998214Y-12788500D01*
X16026786Y-12774214D01*
X16083928Y-12774214D01*
X16112500Y-12788500D01*
X16126786Y-12817071D01*
X16126786Y-12845643D01*
X15983928Y-12874214D01*
X16241071Y-12959929D02*
X16269643Y-12974214D01*
X16326786Y-12974214D01*
X16355357Y-12959929D01*
X16369643Y-12931357D01*
X16369643Y-12917071D01*
X16355357Y-12888500D01*
X16326786Y-12874214D01*
X16283928Y-12874214D01*
X16255357Y-12859929D01*
X16241071Y-12831357D01*
X16241071Y-12817071D01*
X16255357Y-12788500D01*
X16283928Y-12774214D01*
X16326786Y-12774214D01*
X16355357Y-12788500D01*
X16469643Y-13088500D02*
X16483928Y-13074214D01*
X16512500Y-13031357D01*
X16526786Y-13002786D01*
X16541071Y-12959929D01*
X16555357Y-12888500D01*
X16555357Y-12831357D01*
X16541071Y-12759929D01*
X16526786Y-12717071D01*
X16512500Y-12688500D01*
X16483928Y-12645643D01*
X16469643Y-12631357D01*
M02*
