%TF.GenerationSoftware,KiCad,Pcbnew,(5.1.9)-1*%
%TF.CreationDate,2021-08-06T11:33:52+02:00*%
%TF.ProjectId,PumpkinPi,50756d70-6b69-46e5-9069-2e6b69636164,rev?*%
%TF.SameCoordinates,Original*%
%TF.FileFunction,Legend,Top*%
%TF.FilePolarity,Positive*%
%FSLAX46Y46*%
G04 Gerber Fmt 4.6, Leading zero omitted, Abs format (unit mm)*
G04 Created by KiCad (PCBNEW (5.1.9)-1) date 2021-08-06 11:33:52*
%MOMM*%
%LPD*%
G01*
G04 APERTURE LIST*
%ADD10C,0.120000*%
%ADD11C,0.200000*%
%ADD12R,0.400000X0.650000*%
%ADD13C,0.100000*%
%ADD14R,1.150000X1.200000*%
%ADD15R,1.400000X0.900000*%
%ADD16R,1.000000X0.700000*%
%ADD17R,1.450000X1.200000*%
%ADD18R,0.700000X1.000000*%
%ADD19R,1.700000X1.700000*%
%ADD20O,1.700000X1.700000*%
%ADD21R,0.650000X0.400000*%
%ADD22R,1.600000X1.300000*%
G04 APERTURE END LIST*
D10*
%TO.C,U4*%
X103198440Y-92147160D02*
X103198440Y-94047160D01*
X105518440Y-93547160D02*
X105518440Y-92147160D01*
%TO.C,C1*%
X104458505Y-90404360D02*
X104690175Y-90404360D01*
X104458505Y-91124360D02*
X104690175Y-91124360D01*
%TO.C,C2*%
X104463585Y-89454400D02*
X104695255Y-89454400D01*
X104463585Y-90174400D02*
X104695255Y-90174400D01*
%TO.C,C3*%
X106483740Y-93476075D02*
X106483740Y-93244405D01*
X105763740Y-93476075D02*
X105763740Y-93244405D01*
%TO.C,C11*%
X112536560Y-93188525D02*
X112536560Y-93420195D01*
X111816560Y-93188525D02*
X111816560Y-93420195D01*
%TO.C,C12*%
X108700835Y-93070000D02*
X108469165Y-93070000D01*
X108700835Y-92350000D02*
X108469165Y-92350000D01*
%TO.C,J2*%
X111350000Y-102803000D02*
X111350000Y-100143000D01*
X103670000Y-102803000D02*
X111350000Y-102803000D01*
X103670000Y-100143000D02*
X111350000Y-100143000D01*
X103670000Y-102803000D02*
X103670000Y-100143000D01*
X102400000Y-102803000D02*
X101070000Y-102803000D01*
X101070000Y-102803000D02*
X101070000Y-101473000D01*
D11*
%TO.C,J3*%
X112000000Y-98811000D02*
X112000000Y-100261000D01*
X112000000Y-100261000D02*
X100600000Y-100261000D01*
X100600000Y-100261000D02*
X100600000Y-98411000D01*
X110700000Y-94811000D02*
X102050000Y-94811000D01*
D10*
%TO.C,J4*%
X115376000Y-87189000D02*
X112716000Y-87189000D01*
X115376000Y-97409000D02*
X115376000Y-87189000D01*
X112716000Y-97409000D02*
X112716000Y-87189000D01*
X115376000Y-97409000D02*
X112716000Y-97409000D01*
X115376000Y-98679000D02*
X115376000Y-100009000D01*
X115376000Y-100009000D02*
X114046000Y-100009000D01*
%TO.C,J5*%
X99762000Y-88071000D02*
X99762000Y-86741000D01*
X101092000Y-88071000D02*
X99762000Y-88071000D01*
X102362000Y-88071000D02*
X102362000Y-85411000D01*
X102362000Y-85411000D02*
X112582000Y-85411000D01*
X102362000Y-88071000D02*
X112582000Y-88071000D01*
X112582000Y-88071000D02*
X112582000Y-85411000D01*
%TO.C,J6*%
X99628000Y-87189000D02*
X96968000Y-87189000D01*
X99628000Y-97409000D02*
X99628000Y-87189000D01*
X96968000Y-97409000D02*
X96968000Y-87189000D01*
X99628000Y-97409000D02*
X96968000Y-97409000D01*
X99628000Y-98679000D02*
X99628000Y-100009000D01*
X99628000Y-100009000D02*
X98298000Y-100009000D01*
%TO.C,R7*%
X107627439Y-93305360D02*
X107962681Y-93305360D01*
X107627439Y-94065360D02*
X107962681Y-94065360D01*
%TO.C,R8*%
X104401639Y-89282540D02*
X104736881Y-89282540D01*
X104401639Y-88522540D02*
X104736881Y-88522540D01*
%TO.C,R9*%
X107011740Y-89392779D02*
X107011740Y-89728021D01*
X106251740Y-89392779D02*
X106251740Y-89728021D01*
%TO.C,U2*%
X100298000Y-92010000D02*
X100298000Y-93910000D01*
X102618000Y-93410000D02*
X102618000Y-92010000D01*
%TO.C,U3*%
X101027000Y-90822000D02*
X102427000Y-90822000D01*
X102427000Y-88502000D02*
X100527000Y-88502000D01*
%TO.C,Y1*%
X112474520Y-91908240D02*
X112474520Y-88208240D01*
X112474520Y-88208240D02*
X107174520Y-88208240D01*
%TD*%
%LPC*%
D12*
%TO.C,U4*%
X103708440Y-93797160D03*
X105008440Y-93797160D03*
X104358440Y-93797160D03*
X105008440Y-91897160D03*
X103708440Y-91897160D03*
%TD*%
%TO.C,C1*%
G36*
G01*
X103639340Y-90919360D02*
X103639340Y-90609360D01*
G75*
G02*
X103794340Y-90454360I155000J0D01*
G01*
X104219340Y-90454360D01*
G75*
G02*
X104374340Y-90609360I0J-155000D01*
G01*
X104374340Y-90919360D01*
G75*
G02*
X104219340Y-91074360I-155000J0D01*
G01*
X103794340Y-91074360D01*
G75*
G02*
X103639340Y-90919360I0J155000D01*
G01*
G37*
G36*
G01*
X104774340Y-90919360D02*
X104774340Y-90609360D01*
G75*
G02*
X104929340Y-90454360I155000J0D01*
G01*
X105354340Y-90454360D01*
G75*
G02*
X105509340Y-90609360I0J-155000D01*
G01*
X105509340Y-90919360D01*
G75*
G02*
X105354340Y-91074360I-155000J0D01*
G01*
X104929340Y-91074360D01*
G75*
G02*
X104774340Y-90919360I0J155000D01*
G01*
G37*
%TD*%
%TO.C,C2*%
G36*
G01*
X103644420Y-89969400D02*
X103644420Y-89659400D01*
G75*
G02*
X103799420Y-89504400I155000J0D01*
G01*
X104224420Y-89504400D01*
G75*
G02*
X104379420Y-89659400I0J-155000D01*
G01*
X104379420Y-89969400D01*
G75*
G02*
X104224420Y-90124400I-155000J0D01*
G01*
X103799420Y-90124400D01*
G75*
G02*
X103644420Y-89969400I0J155000D01*
G01*
G37*
G36*
G01*
X104779420Y-89969400D02*
X104779420Y-89659400D01*
G75*
G02*
X104934420Y-89504400I155000J0D01*
G01*
X105359420Y-89504400D01*
G75*
G02*
X105514420Y-89659400I0J-155000D01*
G01*
X105514420Y-89969400D01*
G75*
G02*
X105359420Y-90124400I-155000J0D01*
G01*
X104934420Y-90124400D01*
G75*
G02*
X104779420Y-89969400I0J155000D01*
G01*
G37*
%TD*%
%TO.C,C3*%
G36*
G01*
X106278740Y-93160240D02*
X105968740Y-93160240D01*
G75*
G02*
X105813740Y-93005240I0J155000D01*
G01*
X105813740Y-92580240D01*
G75*
G02*
X105968740Y-92425240I155000J0D01*
G01*
X106278740Y-92425240D01*
G75*
G02*
X106433740Y-92580240I0J-155000D01*
G01*
X106433740Y-93005240D01*
G75*
G02*
X106278740Y-93160240I-155000J0D01*
G01*
G37*
G36*
G01*
X106278740Y-94295240D02*
X105968740Y-94295240D01*
G75*
G02*
X105813740Y-94140240I0J155000D01*
G01*
X105813740Y-93715240D01*
G75*
G02*
X105968740Y-93560240I155000J0D01*
G01*
X106278740Y-93560240D01*
G75*
G02*
X106433740Y-93715240I0J-155000D01*
G01*
X106433740Y-94140240D01*
G75*
G02*
X106278740Y-94295240I-155000J0D01*
G01*
G37*
%TD*%
%TO.C,C11*%
G36*
G01*
X112021560Y-92369360D02*
X112331560Y-92369360D01*
G75*
G02*
X112486560Y-92524360I0J-155000D01*
G01*
X112486560Y-92949360D01*
G75*
G02*
X112331560Y-93104360I-155000J0D01*
G01*
X112021560Y-93104360D01*
G75*
G02*
X111866560Y-92949360I0J155000D01*
G01*
X111866560Y-92524360D01*
G75*
G02*
X112021560Y-92369360I155000J0D01*
G01*
G37*
G36*
G01*
X112021560Y-93504360D02*
X112331560Y-93504360D01*
G75*
G02*
X112486560Y-93659360I0J-155000D01*
G01*
X112486560Y-94084360D01*
G75*
G02*
X112331560Y-94239360I-155000J0D01*
G01*
X112021560Y-94239360D01*
G75*
G02*
X111866560Y-94084360I0J155000D01*
G01*
X111866560Y-93659360D01*
G75*
G02*
X112021560Y-93504360I155000J0D01*
G01*
G37*
%TD*%
%TO.C,C12*%
G36*
G01*
X109520000Y-92555000D02*
X109520000Y-92865000D01*
G75*
G02*
X109365000Y-93020000I-155000J0D01*
G01*
X108940000Y-93020000D01*
G75*
G02*
X108785000Y-92865000I0J155000D01*
G01*
X108785000Y-92555000D01*
G75*
G02*
X108940000Y-92400000I155000J0D01*
G01*
X109365000Y-92400000D01*
G75*
G02*
X109520000Y-92555000I0J-155000D01*
G01*
G37*
G36*
G01*
X108385000Y-92555000D02*
X108385000Y-92865000D01*
G75*
G02*
X108230000Y-93020000I-155000J0D01*
G01*
X107805000Y-93020000D01*
G75*
G02*
X107650000Y-92865000I0J155000D01*
G01*
X107650000Y-92555000D01*
G75*
G02*
X107805000Y-92400000I155000J0D01*
G01*
X108230000Y-92400000D01*
G75*
G02*
X108385000Y-92555000I0J-155000D01*
G01*
G37*
%TD*%
D13*
%TO.C,J2*%
G36*
X103250000Y-100623000D02*
G01*
X103250000Y-102323000D01*
X102900000Y-102323000D01*
X102900000Y-114173000D01*
X101900000Y-114173000D01*
X101900000Y-102323000D01*
X101550000Y-102323000D01*
X101550000Y-100623000D01*
X103250000Y-100623000D01*
G37*
G36*
X105790000Y-100623000D02*
G01*
X105790000Y-102323000D01*
X105440000Y-102323000D01*
X105440000Y-113473000D01*
X104440000Y-113473000D01*
X104440000Y-102323000D01*
X104090000Y-102323000D01*
X104090000Y-100623000D01*
X105790000Y-100623000D01*
G37*
G36*
X108330000Y-100623000D02*
G01*
X108330000Y-102323000D01*
X107980000Y-102323000D01*
X107980000Y-113473000D01*
X106980000Y-113473000D01*
X106980000Y-102323000D01*
X106630000Y-102323000D01*
X106630000Y-100623000D01*
X108330000Y-100623000D01*
G37*
G36*
X110870000Y-100623000D02*
G01*
X110870000Y-102323000D01*
X110520000Y-102323000D01*
X110520000Y-114173000D01*
X109520000Y-114173000D01*
X109520000Y-102323000D01*
X109170000Y-102323000D01*
X109170000Y-100623000D01*
X110870000Y-100623000D01*
G37*
%TD*%
D14*
%TO.C,J3*%
X111525000Y-95311000D03*
X111525000Y-97901000D03*
D15*
X101100000Y-95161000D03*
D16*
X100900000Y-96311000D03*
D17*
X101125000Y-97461000D03*
D18*
X110450000Y-98951000D03*
X109350000Y-98951000D03*
X108250000Y-98951000D03*
X107150000Y-98951000D03*
X106050000Y-98951000D03*
X104950000Y-98951000D03*
X103850000Y-98951000D03*
X102750000Y-98951000D03*
%TD*%
D19*
%TO.C,J4*%
X114046000Y-98679000D03*
D20*
X114046000Y-96139000D03*
X114046000Y-93599000D03*
X114046000Y-91059000D03*
X114046000Y-88519000D03*
%TD*%
%TO.C,J5*%
X111252000Y-86741000D03*
X108712000Y-86741000D03*
X106172000Y-86741000D03*
X103632000Y-86741000D03*
D19*
X101092000Y-86741000D03*
%TD*%
%TO.C,J6*%
X98298000Y-98679000D03*
D20*
X98298000Y-96139000D03*
X98298000Y-93599000D03*
X98298000Y-91059000D03*
X98298000Y-88519000D03*
%TD*%
%TO.C,R7*%
G36*
G01*
X106840060Y-93845360D02*
X106840060Y-93525360D01*
G75*
G02*
X107000060Y-93365360I160000J0D01*
G01*
X107395060Y-93365360D01*
G75*
G02*
X107555060Y-93525360I0J-160000D01*
G01*
X107555060Y-93845360D01*
G75*
G02*
X107395060Y-94005360I-160000J0D01*
G01*
X107000060Y-94005360D01*
G75*
G02*
X106840060Y-93845360I0J160000D01*
G01*
G37*
G36*
G01*
X108035060Y-93845360D02*
X108035060Y-93525360D01*
G75*
G02*
X108195060Y-93365360I160000J0D01*
G01*
X108590060Y-93365360D01*
G75*
G02*
X108750060Y-93525360I0J-160000D01*
G01*
X108750060Y-93845360D01*
G75*
G02*
X108590060Y-94005360I-160000J0D01*
G01*
X108195060Y-94005360D01*
G75*
G02*
X108035060Y-93845360I0J160000D01*
G01*
G37*
%TD*%
%TO.C,R8*%
G36*
G01*
X104809260Y-89062540D02*
X104809260Y-88742540D01*
G75*
G02*
X104969260Y-88582540I160000J0D01*
G01*
X105364260Y-88582540D01*
G75*
G02*
X105524260Y-88742540I0J-160000D01*
G01*
X105524260Y-89062540D01*
G75*
G02*
X105364260Y-89222540I-160000J0D01*
G01*
X104969260Y-89222540D01*
G75*
G02*
X104809260Y-89062540I0J160000D01*
G01*
G37*
G36*
G01*
X103614260Y-89062540D02*
X103614260Y-88742540D01*
G75*
G02*
X103774260Y-88582540I160000J0D01*
G01*
X104169260Y-88582540D01*
G75*
G02*
X104329260Y-88742540I0J-160000D01*
G01*
X104329260Y-89062540D01*
G75*
G02*
X104169260Y-89222540I-160000J0D01*
G01*
X103774260Y-89222540D01*
G75*
G02*
X103614260Y-89062540I0J160000D01*
G01*
G37*
%TD*%
%TO.C,R9*%
G36*
G01*
X106471740Y-88605400D02*
X106791740Y-88605400D01*
G75*
G02*
X106951740Y-88765400I0J-160000D01*
G01*
X106951740Y-89160400D01*
G75*
G02*
X106791740Y-89320400I-160000J0D01*
G01*
X106471740Y-89320400D01*
G75*
G02*
X106311740Y-89160400I0J160000D01*
G01*
X106311740Y-88765400D01*
G75*
G02*
X106471740Y-88605400I160000J0D01*
G01*
G37*
G36*
G01*
X106471740Y-89800400D02*
X106791740Y-89800400D01*
G75*
G02*
X106951740Y-89960400I0J-160000D01*
G01*
X106951740Y-90355400D01*
G75*
G02*
X106791740Y-90515400I-160000J0D01*
G01*
X106471740Y-90515400D01*
G75*
G02*
X106311740Y-90355400I0J160000D01*
G01*
X106311740Y-89960400D01*
G75*
G02*
X106471740Y-89800400I160000J0D01*
G01*
G37*
%TD*%
D12*
%TO.C,U2*%
X100808000Y-93660000D03*
X102108000Y-93660000D03*
X101458000Y-93660000D03*
X102108000Y-91760000D03*
X100808000Y-91760000D03*
%TD*%
D21*
%TO.C,U3*%
X102677000Y-89012000D03*
X102677000Y-90312000D03*
X100777000Y-89662000D03*
X100777000Y-90312000D03*
X100777000Y-89012000D03*
%TD*%
D22*
%TO.C,Y1*%
X111474520Y-89058240D03*
X108174520Y-89058240D03*
X108174520Y-91058240D03*
X111474520Y-91058240D03*
%TD*%
M02*
